<?xml version="1.0" encoding="UTF-8" standalone="no"?>
<!DOCTYPE svg PUBLIC "-//W3C//DTD SVG 1.1//EN"
 "http://www.w3.org/Graphics/SVG/1.1/DTD/svg11.dtd">
<!-- Generated by graphviz version 2.43.0 (0)
 -->
<!-- Title: psr::WithAnalysisPrinterMixin&lt; AnalysisDomainTy &gt; Pages: 1 -->
<svg width="983pt" height="167pt"
 viewBox="0.00 0.00 983.00 167.00" xmlns="http://www.w3.org/2000/svg" xmlns:xlink="http://www.w3.org/1999/xlink">
<g id="graph0" class="graph" transform="scale(1 1) rotate(0) translate(4 163)">
<title>psr::WithAnalysisPrinterMixin&lt; AnalysisDomainTy &gt;</title>
<!-- Node1 -->
<g id="Node000001" class="node">
<title>Node1</title>
<g id="a_Node000001"><a xlink:title=" ">
<polygon fill="#999999" stroke="#666666" points="156,-94.5 0,-94.5 0,-64.5 156,-64.5 156,-94.5"/>
<text text-anchor="start" x="8" y="-82.5" font-family="Helvetica,sans-Serif" font-size="10.00">psr::WithAnalysisPrinter</text>
<text text-anchor="middle" x="78" y="-71.5" font-family="Helvetica,sans-Serif" font-size="10.00">Mixin&lt; AnalysisDomainTy &gt;</text>
</a>
</g>
</g>
<!-- Node2 -->
<g id="Node000002" class="node">
<title>Node2</title>
<g id="a_Node000002"><a xlink:href="classpsr_1_1WithAnalysisPrinterMixin.html" target="_top" xlink:title=" ">
<polygon fill="white" stroke="#666666" points="550,-159 351,-159 351,-118 550,-118 550,-159"/>
<text text-anchor="start" x="359" y="-147" font-family="Helvetica,sans-Serif" font-size="10.00">psr::WithAnalysisPrinter</text>
<text text-anchor="start" x="359" y="-136" font-family="Helvetica,sans-Serif" font-size="10.00">Mixin&lt; IDETypeStateAnalysisDomain</text>
<text text-anchor="middle" x="450.5" y="-125" font-family="Helvetica,sans-Serif" font-size="10.00">&lt; TypeStateDescriptionTy &gt; &gt;</text>
</a>
</g>
</g>
<!-- Node1&#45;&gt;Node2 -->
<g id="edge1_Node000001_Node000002" class="edge">
<title>Node1&#45;&gt;Node2</title>
<g id="a_edge1_Node000001_Node000002"><a xlink:title=" ">
<path fill="none" stroke="orange" stroke-dasharray="5,2" d="M138.21,-97.15C149.99,-100.26 162.33,-103.22 174,-105.5 232.15,-116.88 298.02,-124.94 350.77,-130.24"/>
<polygon fill="orange" stroke="orange" points="139.04,-93.75 128.47,-94.53 137.21,-100.51 139.04,-93.75"/>
</a>
</g>
<text text-anchor="start" x="174" y="-141.5" font-family="Helvetica,sans-Serif" font-size="10.00" fill="grey"> &lt; IDETypeStateAnalysisDomain</text>
<text text-anchor="middle" x="253.5" y="-130.5" font-family="Helvetica,sans-Serif" font-size="10.00" fill="grey">&lt; TypeStateDescriptionTy &gt; &gt;</text>
</g>
<!-- Node4 -->
<g id="Node000004" class="node">
<title>Node4</title>
<g id="a_Node000004"><a xlink:href="classpsr_1_1WithAnalysisPrinterMixin.html" target="_top" xlink:title=" ">
<polygon fill="white" stroke="#666666" points="542,-100 359,-100 359,-59 542,-59 542,-100"/>
<text text-anchor="start" x="367" y="-88" font-family="Helvetica,sans-Serif" font-size="10.00">psr::WithAnalysisPrinter</text>
<text text-anchor="start" x="367" y="-77" font-family="Helvetica,sans-Serif" font-size="10.00">Mixin&lt; LLVMIFDSAnalysisDomain</text>
<text text-anchor="middle" x="450.5" y="-66" font-family="Helvetica,sans-Serif" font-size="10.00">Default &gt;</text>
</a>
</g>
</g>
<!-- Node1&#45;&gt;Node4 -->
<g id="edge3_Node000001_Node000004" class="edge">
<title>Node1&#45;&gt;Node4</title>
<g id="a_edge3_Node000001_Node000004"><a xlink:title=" ">
<path fill="none" stroke="orange" stroke-dasharray="5,2" d="M166.46,-79.5C224.46,-79.5 300.38,-79.5 358.99,-79.5"/>
<polygon fill="orange" stroke="orange" points="166.22,-76 156.22,-79.5 166.22,-83 166.22,-76"/>
</a>
</g>
<text text-anchor="start" x="182" y="-93.5" font-family="Helvetica,sans-Serif" font-size="10.00" fill="grey"> &lt; LLVMIFDSAnalysisDomain</text>
<text text-anchor="middle" x="253.5" y="-82.5" font-family="Helvetica,sans-Serif" font-size="10.00" fill="grey">Default &gt;</text>
</g>
<!-- Node6 -->
<g id="Node000006" class="node">
<title>Node6</title>
<g id="a_Node000006"><a xlink:href="classpsr_1_1WithAnalysisPrinterMixin.html" target="_top" xlink:title=" ">
<polygon fill="white" stroke="#666666" points="541.5,-41 359.5,-41 359.5,0 541.5,0 541.5,-41"/>
<text text-anchor="start" x="367.5" y="-29" font-family="Helvetica,sans-Serif" font-size="10.00">psr::WithAnalysisPrinter</text>
<text text-anchor="start" x="367.5" y="-18" font-family="Helvetica,sans-Serif" font-size="10.00">Mixin&lt; IDEExtendedTaintAnalysis</text>
<text text-anchor="middle" x="450.5" y="-7" font-family="Helvetica,sans-Serif" font-size="10.00">Domain &gt;</text>
</a>
</g>
</g>
<!-- Node1&#45;&gt;Node6 -->
<g id="edge5_Node000001_Node000006" class="edge">
<title>Node1&#45;&gt;Node6</title>
<g id="a_edge5_Node000001_Node000006"><a xlink:title=" ">
<path fill="none" stroke="orange" stroke-dasharray="5,2" d="M138.21,-61.85C149.99,-58.74 162.33,-55.78 174,-53.5 235.34,-41.5 305.27,-33.19 359.33,-27.91"/>
<polygon fill="orange" stroke="orange" points="137.21,-58.49 128.47,-64.47 139.04,-65.25 137.21,-58.49"/>
</a>
</g>
<text text-anchor="start" x="182.5" y="-67.5" font-family="Helvetica,sans-Serif" font-size="10.00" fill="grey"> &lt; IDEExtendedTaintAnalysis</text>
<text text-anchor="middle" x="253.5" y="-56.5" font-family="Helvetica,sans-Serif" font-size="10.00" fill="grey">Domain &gt;</text>
</g>
<!-- Node3 -->
<g id="Node000003" class="node">
<title>Node3</title>
<g id="a_Node000003"><a xlink:href="classpsr_1_1IDETypeStateAnalysis.html" target="_top" xlink:title=" ">
<polygon fill="white" stroke="#666666" points="740,-153.5 587,-153.5 587,-123.5 740,-123.5 740,-153.5"/>
<text text-anchor="start" x="595" y="-141.5" font-family="Helvetica,sans-Serif" font-size="10.00">psr::IDETypeStateAnalysis</text>
<text text-anchor="middle" x="663.5" y="-130.5" font-family="Helvetica,sans-Serif" font-size="10.00">&lt; TypeStateDescriptionTy &gt;</text>
</a>
</g>
</g>
<!-- Node2&#45;&gt;Node3 -->
<g id="edge2_Node000002_Node000003" class="edge">
<title>Node2&#45;&gt;Node3</title>
<g id="a_edge2_Node000002_Node000003"><a xlink:title=" ">
<path fill="none" stroke="#63b8ff" d="M560.34,-138.5C569.31,-138.5 578.25,-138.5 586.9,-138.5"/>
<polygon fill="#63b8ff" stroke="#63b8ff" points="560.2,-135 550.2,-138.5 560.2,-142 560.2,-135"/>
</a>
</g>
</g>
<!-- Node5 -->
<g id="Node000005" class="node">
<title>Node5</title>
<g id="a_Node000005"><a xlink:href="classpsr_1_1IFDSTaintAnalysis.html" target="_top" xlink:title=" ">
<polygon fill="white" stroke="#666666" points="726,-89 601,-89 601,-70 726,-70 726,-89"/>
<text text-anchor="middle" x="663.5" y="-77" font-family="Helvetica,sans-Serif" font-size="10.00">psr::IFDSTaintAnalysis</text>
</a>
</g>
</g>
<!-- Node4&#45;&gt;Node5 -->
<g id="edge4_Node000004_Node000005" class="edge">
<title>Node4&#45;&gt;Node5</title>
<g id="a_edge4_Node000004_Node000005"><a xlink:title=" ">
<path fill="none" stroke="#63b8ff" d="M552.45,-79.5C568.95,-79.5 585.61,-79.5 600.79,-79.5"/>
<polygon fill="#63b8ff" stroke="#63b8ff" points="552.21,-76 542.21,-79.5 552.21,-83 552.21,-76"/>
</a>
</g>
</g>
<!-- Node7 -->
<g id="Node000007" class="node">
<title>Node7</title>
<g id="a_Node000007"><a xlink:href="classpsr_1_1XTaint_1_1IDEExtendedTaintAnalysis.html" target="_top" xlink:title="An IDE&#45;based taint analysis that uses k&#45;limited field&#45;access paths to achieve field sensitivity.">
<polygon fill="white" stroke="#666666" points="731.5,-35.5 595.5,-35.5 595.5,-5.5 731.5,-5.5 731.5,-35.5"/>
<text text-anchor="start" x="603.5" y="-23.5" font-family="Helvetica,sans-Serif" font-size="10.00">psr::XTaint::IDEExtended</text>
<text text-anchor="middle" x="663.5" y="-12.5" font-family="Helvetica,sans-Serif" font-size="10.00">TaintAnalysis</text>
</a>
</g>
</g>
<!-- Node6&#45;&gt;Node7 -->
<g id="edge6_Node000006_Node000007" class="edge">
<title>Node6&#45;&gt;Node7</title>
<g id="a_edge6_Node000006_Node000007"><a xlink:title=" ">
<path fill="none" stroke="#63b8ff" d="M551.79,-20.5C566.57,-20.5 581.48,-20.5 595.37,-20.5"/>
<polygon fill="#63b8ff" stroke="#63b8ff" points="551.6,-17 541.6,-20.5 551.59,-24 551.6,-17"/>
</a>
</g>
</g>
<!-- Node8 -->
<g id="Node000008" class="node">
<title>Node8</title>
<g id="a_Node000008"><a xlink:href="classpsr_1_1IDEExtendedTaintAnalysis.html" target="_top" xlink:title=" ">
<polygon fill="white" stroke="#666666" points="975,-35.5 777,-35.5 777,-5.5 975,-5.5 975,-35.5"/>
<text text-anchor="start" x="785" y="-23.5" font-family="Helvetica,sans-Serif" font-size="10.00">psr::IDEExtendedTaintAnalysis</text>
<text text-anchor="middle" x="876" y="-12.5" font-family="Helvetica,sans-Serif" font-size="10.00">&lt; BOUND, USE_STRONG_UPDATES &gt;</text>
</a>
</g>
</g>
<!-- Node7&#45;&gt;Node8 -->
<g id="edge7_Node000007_Node000008" class="edge">
<title>Node7&#45;&gt;Node8</title>
<g id="a_edge7_Node000007_Node000008"><a xlink:title=" ">
<path fill="none" stroke="#63b8ff" d="M741.91,-20.5C753.21,-20.5 764.97,-20.5 776.62,-20.5"/>
<polygon fill="#63b8ff" stroke="#63b8ff" points="741.68,-17 731.68,-20.5 741.68,-24 741.68,-17"/>
</a>
</g>
</g>
</g>
</svg>
