<?xml version="1.0" encoding="UTF-8" standalone="no"?>
<!DOCTYPE svg PUBLIC "-//W3C//DTD SVG 1.1//EN"
 "http://www.w3.org/Graphics/SVG/1.1/DTD/svg11.dtd">
<!-- Generated by graphviz version 2.43.0 (0)
 -->
<!-- Title: psr::IFDSProtoAnalysis Pages: 1 -->
<svg width="1671pt" height="190pt"
 viewBox="0.00 0.00 1671.00 190.00" xmlns="http://www.w3.org/2000/svg" xmlns:xlink="http://www.w3.org/1999/xlink">
<g id="graph0" class="graph" transform="scale(1 1) rotate(0) translate(4 186)">
<title>psr::IFDSProtoAnalysis</title>
<!-- Node1 -->
<g id="Node000001" class="node">
<title>Node1</title>
<g id="a_Node000001"><a xlink:title=" ">
<polygon fill="#999999" stroke="#666666" points="1663,-91.5 1536,-91.5 1536,-72.5 1663,-72.5 1663,-91.5"/>
<text text-anchor="middle" x="1599.5" y="-79.5" font-family="Helvetica,sans-Serif" font-size="10.00">psr::IFDSProtoAnalysis</text>
</a>
</g>
</g>
<!-- Node2 -->
<g id="Node000002" class="node">
<title>Node2</title>
<g id="a_Node000002"><a xlink:href="classpsr_1_1IFDSTabulationProblem.html" target="_top" xlink:title=" ">
<polygon fill="white" stroke="#666666" points="1499,-97 1296,-97 1296,-67 1499,-67 1499,-97"/>
<text text-anchor="start" x="1304" y="-85" font-family="Helvetica,sans-Serif" font-size="10.00">psr::IFDSTabulationProblem</text>
<text text-anchor="middle" x="1397.5" y="-74" font-family="Helvetica,sans-Serif" font-size="10.00">&lt; LLVMIFDSAnalysisDomainDefault &gt;</text>
</a>
</g>
</g>
<!-- Node2&#45;&gt;Node1 -->
<g id="edge1_Node000001_Node000002" class="edge">
<title>Node2&#45;&gt;Node1</title>
<g id="a_edge1_Node000001_Node000002"><a xlink:title=" ">
<path fill="none" stroke="#63b8ff" d="M1509.36,-82C1518.43,-82 1527.38,-82 1535.9,-82"/>
<polygon fill="#63b8ff" stroke="#63b8ff" points="1509.09,-78.5 1499.09,-82 1509.09,-85.5 1509.09,-78.5"/>
</a>
</g>
</g>
<!-- Node3 -->
<g id="Node000003" class="node">
<title>Node3</title>
<g id="a_Node000003"><a xlink:href="classpsr_1_1IDETabulationProblem.html" target="_top" xlink:title="The analysis problem interface for IDE problems (solvable by the IDESolver). Create a subclass from t...">
<polygon fill="white" stroke="#666666" points="898,-97 716,-97 716,-67 898,-67 898,-97"/>
<text text-anchor="start" x="724" y="-85" font-family="Helvetica,sans-Serif" font-size="10.00">psr::IDETabulationProblem</text>
<text text-anchor="middle" x="807" y="-74" font-family="Helvetica,sans-Serif" font-size="10.00">&lt; AnalysisDomainTy, Container &gt;</text>
</a>
</g>
</g>
<!-- Node3&#45;&gt;Node2 -->
<g id="edge2_Node000002_Node000003" class="edge">
<title>Node3&#45;&gt;Node2</title>
<g id="a_edge2_Node000002_Node000003"><a xlink:title=" ">
<path fill="none" stroke="#63b8ff" d="M908.32,-86.65C1003.49,-90.37 1150.51,-94.3 1278,-90 1283.87,-89.8 1289.91,-89.55 1295.99,-89.26"/>
<polygon fill="#63b8ff" stroke="#63b8ff" points="908.26,-83.15 898.12,-86.25 907.98,-90.14 908.26,-83.15"/>
</a>
</g>
</g>
<!-- Node11 -->
<g id="Node000011" class="node">
<title>Node11</title>
<g id="a_Node000011"><a xlink:href="classpsr_1_1IFDSTabulationProblem.html" target="_top" xlink:title="The analysis problem interface for IFDS problems (solvable by the IFDSSolver). Create a subclass from...">
<polygon fill="white" stroke="#666666" points="1117,-76 935,-76 935,-46 1117,-46 1117,-76"/>
<text text-anchor="start" x="943" y="-64" font-family="Helvetica,sans-Serif" font-size="10.00">psr::IFDSTabulationProblem</text>
<text text-anchor="middle" x="1026" y="-53" font-family="Helvetica,sans-Serif" font-size="10.00">&lt; AnalysisDomainTy, Container &gt;</text>
</a>
</g>
</g>
<!-- Node3&#45;&gt;Node11 -->
<g id="edge11_Node000011_Node000003" class="edge">
<title>Node3&#45;&gt;Node11</title>
<g id="a_edge11_Node000011_Node000003"><a xlink:title=" ">
<path fill="none" stroke="#63b8ff" d="M908.13,-72.31C917.02,-71.45 925.99,-70.58 934.79,-69.73"/>
<polygon fill="#63b8ff" stroke="#63b8ff" points="907.76,-68.83 898.14,-73.28 908.43,-75.8 907.76,-68.83"/>
</a>
</g>
</g>
<!-- Node4 -->
<g id="Node000004" class="node">
<title>Node4</title>
<g id="a_Node000004"><a xlink:href="classpsr_1_1FlowFunctions.html" target="_top" xlink:title=" ">
<polygon fill="white" stroke="#666666" points="641,-180.5 520,-180.5 520,-139.5 641,-139.5 641,-180.5"/>
<text text-anchor="start" x="528" y="-168.5" font-family="Helvetica,sans-Serif" font-size="10.00">psr::FlowFunctions</text>
<text text-anchor="start" x="528" y="-157.5" font-family="Helvetica,sans-Serif" font-size="10.00">&lt; AnalysisDomainTy,</text>
<text text-anchor="middle" x="580.5" y="-146.5" font-family="Helvetica,sans-Serif" font-size="10.00"> Container &gt;</text>
</a>
</g>
</g>
<!-- Node4&#45;&gt;Node3 -->
<g id="edge3_Node000003_Node000004" class="edge">
<title>Node4&#45;&gt;Node3</title>
<g id="a_edge3_Node000003_Node000004"><a xlink:title=" ">
<path fill="none" stroke="#63b8ff" d="M651.02,-139.2C660.45,-136.2 669.98,-133.09 679,-130 709.22,-119.65 743.03,-106.81 768.16,-97.02"/>
<polygon fill="#63b8ff" stroke="#63b8ff" points="649.74,-135.93 641.25,-142.27 651.83,-142.61 649.74,-135.93"/>
</a>
</g>
</g>
<!-- Node5 -->
<g id="Node000005" class="node">
<title>Node5</title>
<g id="a_Node000005"><a xlink:href="classpsr_1_1FlowFunctionTemplates.html" target="_top" xlink:title=" ">
<polygon fill="white" stroke="#666666" points="445,-180.5 293,-180.5 293,-139.5 445,-139.5 445,-180.5"/>
<text text-anchor="start" x="301" y="-168.5" font-family="Helvetica,sans-Serif" font-size="10.00">psr::FlowFunctionTemplates</text>
<text text-anchor="start" x="301" y="-157.5" font-family="Helvetica,sans-Serif" font-size="10.00">&lt; AnalysisDomainTy::d_t,</text>
<text text-anchor="middle" x="369" y="-146.5" font-family="Helvetica,sans-Serif" font-size="10.00"> Container &gt;</text>
</a>
</g>
</g>
<!-- Node5&#45;&gt;Node4 -->
<g id="edge4_Node000004_Node000005" class="edge">
<title>Node5&#45;&gt;Node4</title>
<g id="a_edge4_Node000004_Node000005"><a xlink:title=" ">
<path fill="none" stroke="darkgreen" d="M455.22,-160C476.87,-160 499.67,-160 519.75,-160"/>
<polygon fill="darkgreen" stroke="darkgreen" points="455.04,-156.5 445.04,-160 455.04,-163.5 455.04,-156.5"/>
</a>
</g>
</g>
<!-- Node6 -->
<g id="Node000006" class="node">
<title>Node6</title>
<g id="a_Node000006"><a xlink:href="classpsr_1_1FlowFunctionTemplates.html" target="_top" xlink:title=" ">
<polygon fill="white" stroke="#666666" points="152,-175 0,-175 0,-145 152,-145 152,-175"/>
<text text-anchor="start" x="8" y="-163" font-family="Helvetica,sans-Serif" font-size="10.00">psr::FlowFunctionTemplates</text>
<text text-anchor="middle" x="76" y="-152" font-family="Helvetica,sans-Serif" font-size="10.00">&lt; D, Container &gt;</text>
</a>
</g>
</g>
<!-- Node6&#45;&gt;Node5 -->
<g id="edge5_Node000005_Node000006" class="edge">
<title>Node6&#45;&gt;Node5</title>
<g id="a_edge5_Node000005_Node000006"><a xlink:title=" ">
<path fill="none" stroke="orange" stroke-dasharray="5,2" d="M162.39,-160C203.79,-160 253.06,-160 293,-160"/>
<polygon fill="orange" stroke="orange" points="162.32,-156.5 152.32,-160 162.32,-163.5 162.32,-156.5"/>
</a>
</g>
<text text-anchor="start" x="170" y="-174" font-family="Helvetica,sans-Serif" font-size="10.00" fill="grey"> &lt; AnalysisDomainTy</text>
<text text-anchor="middle" x="222.5" y="-163" font-family="Helvetica,sans-Serif" font-size="10.00" fill="grey">::d_t, Container &gt;</text>
</g>
<!-- Node7 -->
<g id="Node000007" class="node">
<title>Node7</title>
<g id="a_Node000007"><a xlink:href="classpsr_1_1EdgeFunctions.html" target="_top" xlink:title=" ">
<polygon fill="white" stroke="#666666" points="645,-121 516,-121 516,-91 645,-91 645,-121"/>
<text text-anchor="start" x="524" y="-109" font-family="Helvetica,sans-Serif" font-size="10.00">psr::EdgeFunctions</text>
<text text-anchor="middle" x="580.5" y="-98" font-family="Helvetica,sans-Serif" font-size="10.00">&lt; AnalysisDomainTy &gt;</text>
</a>
</g>
</g>
<!-- Node7&#45;&gt;Node3 -->
<g id="edge6_Node000003_Node000007" class="edge">
<title>Node7&#45;&gt;Node3</title>
<g id="a_edge6_Node000003_Node000007"><a xlink:title=" ">
<path fill="none" stroke="#63b8ff" d="M655.44,-98.1C674.71,-96.04 695.7,-93.79 715.71,-91.65"/>
<polygon fill="#63b8ff" stroke="#63b8ff" points="654.8,-94.64 645.23,-99.19 655.55,-101.6 654.8,-94.64"/>
</a>
</g>
</g>
<!-- Node8 -->
<g id="Node000008" class="node">
<title>Node8</title>
<g id="a_Node000008"><a xlink:href="classpsr_1_1JoinLattice_3_01AnalysisDomainTy_01_4.html" target="_top" xlink:title=" ">
<polygon fill="white" stroke="#666666" points="651,-73 510,-73 510,-43 651,-43 651,-73"/>
<text text-anchor="start" x="518" y="-61" font-family="Helvetica,sans-Serif" font-size="10.00">psr::JoinLattice&lt; Analysis</text>
<text text-anchor="middle" x="580.5" y="-50" font-family="Helvetica,sans-Serif" font-size="10.00">DomainTy &gt;</text>
</a>
</g>
</g>
<!-- Node8&#45;&gt;Node3 -->
<g id="edge7_Node000003_Node000008" class="edge">
<title>Node8&#45;&gt;Node3</title>
<g id="a_edge7_Node000003_Node000008"><a xlink:title=" ">
<path fill="none" stroke="#63b8ff" d="M661.54,-66.56C679.18,-68.44 697.98,-70.45 715.98,-72.38"/>
<polygon fill="#63b8ff" stroke="#63b8ff" points="661.62,-63.05 651.3,-65.46 660.87,-70.01 661.62,-63.05"/>
</a>
</g>
</g>
<!-- Node9 -->
<g id="Node000009" class="node">
<title>Node9</title>
<g id="a_Node000009"><a xlink:href="classpsr_1_1SemiRing.html" target="_top" xlink:title=" ">
<polygon fill="white" stroke="#666666" points="679,-24.5 482,-24.5 482,-5.5 679,-5.5 679,-24.5"/>
<text text-anchor="middle" x="580.5" y="-12.5" font-family="Helvetica,sans-Serif" font-size="10.00">psr::SemiRing&lt; AnalysisDomainTy &gt;</text>
</a>
</g>
</g>
<!-- Node9&#45;&gt;Node3 -->
<g id="edge8_Node000003_Node000009" class="edge">
<title>Node9&#45;&gt;Node3</title>
<g id="a_edge8_Node000003_Node000009"><a xlink:title=" ">
<path fill="none" stroke="#63b8ff" d="M648.92,-26.59C659.07,-28.78 669.36,-31.26 679,-34 710.74,-43.02 745.75,-56.53 770.96,-66.92"/>
<polygon fill="#63b8ff" stroke="#63b8ff" points="649.36,-23.11 638.85,-24.5 647.93,-29.96 649.36,-23.11"/>
</a>
</g>
</g>
<!-- Node10 -->
<g id="Node000010" class="node">
<title>Node10</title>
<g id="a_Node000010"><a xlink:href="classpsr_1_1AllTopFnProvider_3_01AnalysisDomainTy_01_4.html" target="_top" xlink:title=" ">
<polygon fill="white" stroke="#666666" points="433.5,-30 304.5,-30 304.5,0 433.5,0 433.5,-30"/>
<text text-anchor="start" x="312.5" y="-18" font-family="Helvetica,sans-Serif" font-size="10.00">psr::AllTopFnProvider</text>
<text text-anchor="middle" x="369" y="-7" font-family="Helvetica,sans-Serif" font-size="10.00">&lt; AnalysisDomainTy &gt;</text>
</a>
</g>
</g>
<!-- Node10&#45;&gt;Node9 -->
<g id="edge9_Node000009_Node000010" class="edge">
<title>Node10&#45;&gt;Node9</title>
<g id="a_edge9_Node000009_Node000010"><a xlink:title=" ">
<path fill="none" stroke="#63b8ff" d="M443.84,-15C456.1,-15 468.98,-15 481.72,-15"/>
<polygon fill="#63b8ff" stroke="#63b8ff" points="443.71,-11.5 433.71,-15 443.71,-18.5 443.71,-11.5"/>
</a>
</g>
</g>
<!-- Node11&#45;&gt;Node2 -->
<g id="edge10_Node000002_Node000011" class="edge">
<title>Node11&#45;&gt;Node2</title>
<g id="a_edge10_Node000002_Node000011"><a xlink:title=" ">
<path fill="none" stroke="orange" stroke-dasharray="5,2" d="M1127.39,-61.74C1173.35,-62.61 1228.48,-64.39 1278,-68 1283.79,-68.42 1289.72,-68.92 1295.71,-69.47"/>
<polygon fill="orange" stroke="orange" points="1127.19,-58.24 1117.13,-61.56 1127.07,-65.24 1127.19,-58.24"/>
</a>
</g>
<text text-anchor="start" x="1135" y="-82" font-family="Helvetica,sans-Serif" font-size="10.00" fill="grey"> &lt; LLVMIFDSAnalysisDomain</text>
<text text-anchor="middle" x="1206.5" y="-71" font-family="Helvetica,sans-Serif" font-size="10.00" fill="grey">Default &gt;</text>
</g>
</g>
</svg>
