<?xml version="1.0" encoding="UTF-8" standalone="no"?>
<!DOCTYPE svg PUBLIC "-//W3C//DTD SVG 1.1//EN"
 "http://www.w3.org/Graphics/SVG/1.1/DTD/svg11.dtd">
<!-- Generated by graphviz version 2.43.0 (0)
 -->
<!-- Title: psr::AliasInfoRef&lt; V, N &gt; Pages: 1 -->
<svg width="1216pt" height="165pt"
 viewBox="0.00 0.00 1216.00 165.00" xmlns="http://www.w3.org/2000/svg" xmlns:xlink="http://www.w3.org/1999/xlink">
<g id="graph0" class="graph" transform="scale(1 1) rotate(0) translate(4 161)">
<title>psr::AliasInfoRef&lt; V, N &gt;</title>
<!-- Node1 -->
<g id="Node000001" class="node">
<title>Node1</title>
<g id="a_Node000001"><a xlink:title="A type&#45;erased reference to any object implementing the IsAliasInfo interface. Use this,...">
<polygon fill="#999999" stroke="#666666" points="583,-110.5 478,-110.5 478,-80.5 583,-80.5 583,-110.5"/>
<text text-anchor="start" x="486" y="-98.5" font-family="Helvetica,sans-Serif" font-size="10.00">psr::AliasInfoRef&lt;</text>
<text text-anchor="middle" x="530.5" y="-87.5" font-family="Helvetica,sans-Serif" font-size="10.00"> V, N &gt;</text>
</a>
</g>
</g>
<!-- Node4 -->
<g id="Node000004" class="node">
<title>Node4</title>
<g id="a_Node000004"><a xlink:href="classpsr_1_1AliasInfo.html" target="_top" xlink:title=" ">
<polygon fill="white" stroke="#666666" points="1208,-157 1089,-157 1089,-116 1208,-116 1208,-157"/>
<text text-anchor="start" x="1097" y="-145" font-family="Helvetica,sans-Serif" font-size="10.00">psr::AliasInfo&lt; const</text>
<text text-anchor="start" x="1097" y="-134" font-family="Helvetica,sans-Serif" font-size="10.00"> llvm::Value *, const</text>
<text text-anchor="middle" x="1148.5" y="-123" font-family="Helvetica,sans-Serif" font-size="10.00"> llvm::Instruction * &gt;</text>
</a>
</g>
</g>
<!-- Node1&#45;&gt;Node4 -->
<g id="edge3_Node000001_Node000004" class="edge">
<title>Node1&#45;&gt;Node4</title>
<g id="a_edge3_Node000001_Node000004"><a xlink:title=" ">
<path fill="none" stroke="#63b8ff" d="M577.69,-113.94C585.38,-116.48 593.34,-118.8 601,-120.5 774.95,-159.23 987.7,-149.76 1088.77,-141.95"/>
<polygon fill="#63b8ff" stroke="#63b8ff" points="578.73,-110.6 568.14,-110.63 576.44,-117.21 578.73,-110.6"/>
</a>
</g>
</g>
<!-- Node5 -->
<g id="Node000005" class="node">
<title>Node5</title>
<g id="a_Node000005"><a xlink:href="classpsr_1_1AliasInfo.html" target="_top" xlink:title="Similar to AliasInfoRef, but exclusively owns the held reference. Use this, if you need to decide dyn...">
<polygon fill="white" stroke="#666666" points="897.5,-127 774.5,-127 774.5,-108 897.5,-108 897.5,-127"/>
<text text-anchor="middle" x="836" y="-115" font-family="Helvetica,sans-Serif" font-size="10.00">psr::AliasInfo&lt; V, N &gt;</text>
</a>
</g>
</g>
<!-- Node1&#45;&gt;Node5 -->
<g id="edge4_Node000001_Node000005" class="edge">
<title>Node1&#45;&gt;Node5</title>
<g id="a_edge4_Node000001_Node000005"><a xlink:title=" ">
<path fill="none" stroke="#63b8ff" d="M593.58,-100C646.39,-103.83 721.81,-109.3 774.24,-113.1"/>
<polygon fill="#63b8ff" stroke="#63b8ff" points="593.56,-96.49 583.33,-99.26 593.05,-103.47 593.56,-96.49"/>
</a>
</g>
</g>
<!-- Node6 -->
<g id="Node000006" class="node">
<title>Node6</title>
<g id="a_Node000006"><a xlink:href="classpsr_1_1AliasInfoRef.html" target="_top" xlink:title=" ">
<polygon fill="white" stroke="#666666" points="888.5,-89.5 783.5,-89.5 783.5,-59.5 888.5,-59.5 888.5,-89.5"/>
<text text-anchor="start" x="791.5" y="-77.5" font-family="Helvetica,sans-Serif" font-size="10.00">psr::AliasInfoRef&lt;</text>
<text text-anchor="middle" x="836" y="-66.5" font-family="Helvetica,sans-Serif" font-size="10.00"> v_t, n_t &gt;</text>
</a>
</g>
</g>
<!-- Node1&#45;&gt;Node6 -->
<g id="edge6_Node000001_Node000006" class="edge">
<title>Node1&#45;&gt;Node6</title>
<g id="a_edge6_Node000001_Node000006"><a xlink:title=" ">
<path fill="none" stroke="orange" stroke-dasharray="5,2" d="M593.22,-85.36C595.85,-85.04 598.45,-84.76 601,-84.5 663.51,-78.24 735.8,-75.89 783.29,-75.02"/>
<polygon fill="orange" stroke="orange" points="592.5,-81.92 583.03,-86.67 593.4,-88.86 592.5,-81.92"/>
</a>
</g>
<text text-anchor="middle" x="672.5" y="-87.5" font-family="Helvetica,sans-Serif" font-size="10.00" fill="grey"> &lt; v_t, n_t &gt;</text>
</g>
<!-- Node7 -->
<g id="Node000007" class="node">
<title>Node7</title>
<g id="a_Node000007"><a xlink:href="classpsr_1_1AliasInfoRef.html" target="_top" xlink:title=" ">
<polygon fill="white" stroke="#666666" points="910,-41 762,-41 762,0 910,0 910,-41"/>
<text text-anchor="start" x="770" y="-29" font-family="Helvetica,sans-Serif" font-size="10.00">psr::AliasInfoRef&lt;</text>
<text text-anchor="start" x="770" y="-18" font-family="Helvetica,sans-Serif" font-size="10.00"> const llvm::Value *,</text>
<text text-anchor="middle" x="836" y="-7" font-family="Helvetica,sans-Serif" font-size="10.00"> const llvm::Instruction * &gt;</text>
</a>
</g>
</g>
<!-- Node1&#45;&gt;Node7 -->
<g id="edge7_Node000001_Node000007" class="edge">
<title>Node1&#45;&gt;Node7</title>
<g id="a_edge7_Node000001_Node000007"><a xlink:title=" ">
<path fill="none" stroke="orange" stroke-dasharray="5,2" d="M557.81,-74.47C570.22,-65.63 585.65,-56.12 601,-50.5 652.73,-31.56 714.69,-24.24 761.86,-21.56"/>
<polygon fill="orange" stroke="orange" points="555.71,-71.67 549.74,-80.42 559.86,-77.3 555.71,-71.67"/>
</a>
</g>
<text text-anchor="start" x="601" y="-64.5" font-family="Helvetica,sans-Serif" font-size="10.00" fill="grey"> &lt; const llvm::Value</text>
<text text-anchor="middle" x="672.5" y="-53.5" font-family="Helvetica,sans-Serif" font-size="10.00" fill="grey"> *, const llvm::Instruction * &gt;</text>
</g>
<!-- Node2 -->
<g id="Node000002" class="node">
<title>Node2</title>
<g id="a_Node000002"><a xlink:href="classpsr_1_1AnalysisPropertiesMixin.html" target="_top" xlink:title=" ">
<polygon fill="white" stroke="#666666" points="441,-110.5 286,-110.5 286,-80.5 441,-80.5 441,-110.5"/>
<text text-anchor="start" x="294" y="-98.5" font-family="Helvetica,sans-Serif" font-size="10.00">psr::AnalysisPropertiesMixin</text>
<text text-anchor="middle" x="363.5" y="-87.5" font-family="Helvetica,sans-Serif" font-size="10.00">&lt; AliasInfoRef&lt; V, N &gt; &gt;</text>
</a>
</g>
</g>
<!-- Node2&#45;&gt;Node1 -->
<g id="edge1_Node000001_Node000002" class="edge">
<title>Node2&#45;&gt;Node1</title>
<g id="a_edge1_Node000001_Node000002"><a xlink:title=" ">
<path fill="none" stroke="#63b8ff" d="M451.44,-95.5C460.49,-95.5 469.48,-95.5 477.96,-95.5"/>
<polygon fill="#63b8ff" stroke="#63b8ff" points="451.2,-92 441.2,-95.5 451.2,-99 451.2,-92"/>
</a>
</g>
</g>
<!-- Node3 -->
<g id="Node000003" class="node">
<title>Node3</title>
<g id="a_Node000003"><a xlink:href="classpsr_1_1AnalysisPropertiesMixin.html" target="_top" xlink:title=" ">
<polygon fill="white" stroke="#666666" points="155,-110.5 0,-110.5 0,-80.5 155,-80.5 155,-110.5"/>
<text text-anchor="start" x="8" y="-98.5" font-family="Helvetica,sans-Serif" font-size="10.00">psr::AnalysisPropertiesMixin</text>
<text text-anchor="middle" x="77.5" y="-87.5" font-family="Helvetica,sans-Serif" font-size="10.00">&lt; Derived &gt;</text>
</a>
</g>
</g>
<!-- Node3&#45;&gt;Node2 -->
<g id="edge2_Node000002_Node000003" class="edge">
<title>Node3&#45;&gt;Node2</title>
<g id="a_edge2_Node000002_Node000003"><a xlink:title=" ">
<path fill="none" stroke="orange" stroke-dasharray="5,2" d="M165.47,-95.5C203.81,-95.5 248.48,-95.5 285.58,-95.5"/>
<polygon fill="orange" stroke="orange" points="165.35,-92 155.35,-95.5 165.35,-99 165.35,-92"/>
</a>
</g>
<text text-anchor="start" x="173" y="-109.5" font-family="Helvetica,sans-Serif" font-size="10.00" fill="grey"> &lt; AliasInfoRef&lt; V,</text>
<text text-anchor="middle" x="220.5" y="-98.5" font-family="Helvetica,sans-Serif" font-size="10.00" fill="grey"> N &gt; &gt;</text>
</g>
<!-- Node5&#45;&gt;Node4 -->
<g id="edge5_Node000005_Node000004" class="edge">
<title>Node5&#45;&gt;Node4</title>
<g id="a_edge5_Node000005_Node000004"><a xlink:title=" ">
<path fill="none" stroke="orange" stroke-dasharray="5,2" d="M908.09,-114.25C954.59,-113.07 1016.59,-113.29 1071,-119.5 1076.81,-120.16 1082.83,-121.08 1088.82,-122.16"/>
<polygon fill="orange" stroke="orange" points="907.72,-110.76 897.82,-114.54 907.91,-117.75 907.72,-110.76"/>
</a>
</g>
<text text-anchor="start" x="928" y="-133.5" font-family="Helvetica,sans-Serif" font-size="10.00" fill="grey"> &lt; const llvm::Value</text>
<text text-anchor="middle" x="999.5" y="-122.5" font-family="Helvetica,sans-Serif" font-size="10.00" fill="grey"> *, const llvm::Instruction * &gt;</text>
</g>
</g>
</svg>
