<?xml version="1.0" encoding="UTF-8" standalone="no"?>
<!DOCTYPE svg PUBLIC "-//W3C//DTD SVG 1.1//EN"
 "http://www.w3.org/Graphics/SVG/1.1/DTD/svg11.dtd">
<!-- Generated by graphviz version 2.43.0 (0)
 -->
<!-- Title: psr::EquivalenceClassMapNG&lt; TKey, TValue, ValueComparator &gt; Pages: 1 -->
<svg width="594pt" height="179pt"
 viewBox="0.00 0.00 594.00 179.00" xmlns="http://www.w3.org/2000/svg" xmlns:xlink="http://www.w3.org/1999/xlink">
<g id="graph0" class="graph" transform="scale(1 1) rotate(0) translate(4 175)">
<title>psr::EquivalenceClassMapNG&lt; TKey, TValue, ValueComparator &gt;</title>
<!-- Node1 -->
<g id="Node000001" class="node">
<title>Node1</title>
<g id="a_Node000001"><a xlink:title=" ">
<polygon fill="#999999" stroke="#666666" points="208,-100.5 0,-100.5 0,-70.5 208,-70.5 208,-100.5"/>
<text text-anchor="start" x="8" y="-88.5" font-family="Helvetica,sans-Serif" font-size="10.00">psr::EquivalenceClassMap</text>
<text text-anchor="middle" x="104" y="-77.5" font-family="Helvetica,sans-Serif" font-size="10.00">NG&lt; TKey, TValue, ValueComparator &gt;</text>
</a>
</g>
</g>
<!-- Node2 -->
<g id="Node000002" class="node">
<title>Node2</title>
<g id="a_Node000002"><a xlink:href="classpsr_1_1EquivalenceClassMapNG.html" target="_top" xlink:title=" ">
<polygon fill="white" stroke="#666666" points="561,-171 407,-171 407,-130 561,-130 561,-171"/>
<text text-anchor="start" x="415" y="-159" font-family="Helvetica,sans-Serif" font-size="10.00">psr::EquivalenceClassMap</text>
<text text-anchor="start" x="415" y="-148" font-family="Helvetica,sans-Serif" font-size="10.00">NG&lt; uint64_t, EdgeFunction</text>
<text text-anchor="middle" x="484" y="-137" font-family="Helvetica,sans-Serif" font-size="10.00">&lt; l_t &gt; &gt;</text>
</a>
</g>
</g>
<!-- Node1&#45;&gt;Node2 -->
<g id="edge1_Node000001_Node000002" class="edge">
<title>Node1&#45;&gt;Node2</title>
<g id="a_edge1_Node000001_Node000002"><a xlink:title=" ">
<path fill="none" stroke="orange" stroke-dasharray="5,2" d="M157.09,-103.78C178.24,-110.58 203.06,-117.79 226,-122.5 286.12,-134.85 355.35,-142 406.79,-145.97"/>
<polygon fill="orange" stroke="orange" points="157.92,-100.37 147.33,-100.59 155.75,-107.02 157.92,-100.37"/>
</a>
</g>
<text text-anchor="start" x="232" y="-155.5" font-family="Helvetica,sans-Serif" font-size="10.00" fill="grey"> &lt; uint64_t, EdgeFunction</text>
<text text-anchor="middle" x="295" y="-144.5" font-family="Helvetica,sans-Serif" font-size="10.00" fill="grey">&lt; l_t &gt; &gt;</text>
</g>
<!-- Node3 -->
<g id="Node000003" class="node">
<title>Node3</title>
<g id="a_Node000003"><a xlink:href="classpsr_1_1EquivalenceClassMapNG.html" target="_top" xlink:title=" ">
<polygon fill="white" stroke="#666666" points="561,-111.5 407,-111.5 407,-59.5 561,-59.5 561,-111.5"/>
<text text-anchor="start" x="415" y="-99.5" font-family="Helvetica,sans-Serif" font-size="10.00">psr::EquivalenceClassMap</text>
<text text-anchor="start" x="415" y="-88.5" font-family="Helvetica,sans-Serif" font-size="10.00">NG&lt; std::pair&lt; uint64</text>
<text text-anchor="start" x="415" y="-77.5" font-family="Helvetica,sans-Serif" font-size="10.00">_t, uint64_t &gt;, EdgeFunction</text>
<text text-anchor="middle" x="484" y="-66.5" font-family="Helvetica,sans-Serif" font-size="10.00">&lt; l_t &gt; &gt;</text>
</a>
</g>
</g>
<!-- Node1&#45;&gt;Node3 -->
<g id="edge2_Node000001_Node000003" class="edge">
<title>Node1&#45;&gt;Node3</title>
<g id="a_edge2_Node000001_Node000003"><a xlink:title=" ">
<path fill="none" stroke="orange" stroke-dasharray="5,2" d="M218.34,-85.5C279.27,-85.5 352.76,-85.5 406.82,-85.5"/>
<polygon fill="orange" stroke="orange" points="218.29,-82 208.29,-85.5 218.29,-89 218.29,-82"/>
</a>
</g>
<text text-anchor="start" x="226" y="-110.5" font-family="Helvetica,sans-Serif" font-size="10.00" fill="grey"> &lt; std::pair&lt; uint64</text>
<text text-anchor="start" x="226" y="-99.5" font-family="Helvetica,sans-Serif" font-size="10.00" fill="grey">_t, uint64_t &gt;, EdgeFunction</text>
<text text-anchor="middle" x="295" y="-88.5" font-family="Helvetica,sans-Serif" font-size="10.00" fill="grey">&lt; l_t &gt; &gt;</text>
</g>
<!-- Node4 -->
<g id="Node000004" class="node">
<title>Node4</title>
<g id="a_Node000004"><a xlink:href="classpsr_1_1EquivalenceClassMapNG.html" target="_top" xlink:title=" ">
<polygon fill="white" stroke="#666666" points="586,-41 382,-41 382,0 586,0 586,-41"/>
<text text-anchor="start" x="390" y="-29" font-family="Helvetica,sans-Serif" font-size="10.00">psr::EquivalenceClassMap</text>
<text text-anchor="start" x="390" y="-18" font-family="Helvetica,sans-Serif" font-size="10.00">NG&lt; EdgeFuncNodeKey, EdgeFunction</text>
<text text-anchor="middle" x="484" y="-7" font-family="Helvetica,sans-Serif" font-size="10.00">Type &gt;</text>
</a>
</g>
</g>
<!-- Node1&#45;&gt;Node4 -->
<g id="edge3_Node000001_Node000004" class="edge">
<title>Node1&#45;&gt;Node4</title>
<g id="a_edge3_Node000001_Node000004"><a xlink:title=" ">
<path fill="none" stroke="orange" stroke-dasharray="5,2" d="M181.51,-68.32C196.24,-65.22 211.58,-62.14 226,-59.5 277.16,-50.13 334.34,-41.29 381.76,-34.41"/>
<polygon fill="orange" stroke="orange" points="180.48,-64.96 171.42,-70.46 181.93,-71.81 180.48,-64.96"/>
</a>
</g>
<text text-anchor="start" x="241" y="-73.5" font-family="Helvetica,sans-Serif" font-size="10.00" fill="grey"> &lt; EdgeFuncNodeKey,</text>
<text text-anchor="middle" x="295" y="-62.5" font-family="Helvetica,sans-Serif" font-size="10.00" fill="grey"> EdgeFunctionType &gt;</text>
</g>
</g>
</svg>
