<?xml version="1.0" encoding="UTF-8" standalone="no"?>
<!DOCTYPE svg PUBLIC "-//W3C//DTD SVG 1.1//EN"
 "http://www.w3.org/Graphics/SVG/1.1/DTD/svg11.dtd">
<!-- Generated by graphviz version 2.43.0 (0)
 -->
<!-- Title: psr::LLVMLocalRawAliasIteratorMixin&lt; Derived, AAResT &gt; Pages: 1 -->
<svg width="935pt" height="51pt"
 viewBox="0.00 0.00 935.00 50.50" xmlns="http://www.w3.org/2000/svg" xmlns:xlink="http://www.w3.org/1999/xlink">
<g id="graph0" class="graph" transform="scale(1 1) rotate(0) translate(4 46.5)">
<title>psr::LLVMLocalRawAliasIteratorMixin&lt; Derived, AAResT &gt;</title>
<!-- Node1 -->
<g id="Node000001" class="node">
<title>Node1</title>
<g id="a_Node000001"><a xlink:title=" ">
<polygon fill="#999999" stroke="#666666" points="350,-35.5 180,-35.5 180,-5.5 350,-5.5 350,-35.5"/>
<text text-anchor="start" x="188" y="-23.5" font-family="Helvetica,sans-Serif" font-size="10.00">psr::LLVMLocalRawAliasIterator</text>
<text text-anchor="middle" x="265" y="-12.5" font-family="Helvetica,sans-Serif" font-size="10.00">Mixin&lt; Derived, AAResT &gt;</text>
</a>
</g>
</g>
<!-- Node3 -->
<g id="Node000003" class="node">
<title>Node3</title>
<g id="a_Node000003"><a xlink:href="classpsr_1_1LLVMLocalRawAliasIteratorMixin.html" target="_top" xlink:title=" ">
<polygon fill="white" stroke="#666666" points="720,-41 533,-41 533,0 720,0 720,-41"/>
<text text-anchor="start" x="541" y="-29" font-family="Helvetica,sans-Serif" font-size="10.00">psr::LLVMLocalRawAliasIterator</text>
<text text-anchor="start" x="541" y="-18" font-family="Helvetica,sans-Serif" font-size="10.00">Mixin&lt; LLVMLocalRawAliasIterator</text>
<text text-anchor="middle" x="626.5" y="-7" font-family="Helvetica,sans-Serif" font-size="10.00">&lt; AAResT &gt;, AAResT &gt;</text>
</a>
</g>
</g>
<!-- Node1&#45;&gt;Node3 -->
<g id="edge2_Node000001_Node000003" class="edge">
<title>Node1&#45;&gt;Node3</title>
<g id="a_edge2_Node000001_Node000003"><a xlink:title=" ">
<path fill="none" stroke="orange" stroke-dasharray="5,2" d="M360.41,-20.5C413.67,-20.5 479.95,-20.5 532.91,-20.5"/>
<polygon fill="orange" stroke="orange" points="360.29,-17 350.29,-20.5 360.29,-24 360.29,-17"/>
</a>
</g>
<text text-anchor="start" x="368" y="-34.5" font-family="Helvetica,sans-Serif" font-size="10.00" fill="grey"> &lt; LLVMLocalRawAliasIterator</text>
<text text-anchor="middle" x="441.5" y="-23.5" font-family="Helvetica,sans-Serif" font-size="10.00" fill="grey">&lt; AAResT &gt;, AAResT &gt;</text>
</g>
<!-- Node2 -->
<g id="Node000002" class="node">
<title>Node2</title>
<g id="a_Node000002"><a xlink:title=" ">
<polygon fill="white" stroke="#666666" points="143,-35.5 0,-35.5 0,-5.5 143,-5.5 143,-35.5"/>
<text text-anchor="start" x="8" y="-23.5" font-family="Helvetica,sans-Serif" font-size="10.00">psr::detail::LLVMLocalRaw</text>
<text text-anchor="middle" x="71.5" y="-12.5" font-family="Helvetica,sans-Serif" font-size="10.00">AliasIteratorBase</text>
</a>
</g>
</g>
<!-- Node2&#45;&gt;Node1 -->
<g id="edge1_Node000001_Node000002" class="edge">
<title>Node2&#45;&gt;Node1</title>
<g id="a_edge1_Node000001_Node000002"><a xlink:title=" ">
<path fill="none" stroke="#63b8ff" d="M153.45,-20.5C162.2,-20.5 171.13,-20.5 179.92,-20.5"/>
<polygon fill="#63b8ff" stroke="#63b8ff" points="153.26,-17 143.26,-20.5 153.26,-24 153.26,-17"/>
</a>
</g>
</g>
<!-- Node4 -->
<g id="Node000004" class="node">
<title>Node4</title>
<g id="a_Node000004"><a xlink:href="classpsr_1_1LLVMLocalRawAliasIterator.html" target="_top" xlink:title=" ">
<polygon fill="white" stroke="#666666" points="927,-35.5 757,-35.5 757,-5.5 927,-5.5 927,-35.5"/>
<text text-anchor="start" x="765" y="-23.5" font-family="Helvetica,sans-Serif" font-size="10.00">psr::LLVMLocalRawAliasIterator</text>
<text text-anchor="middle" x="842" y="-12.5" font-family="Helvetica,sans-Serif" font-size="10.00">&lt; AAResT &gt;</text>
</a>
</g>
</g>
<!-- Node3&#45;&gt;Node4 -->
<g id="edge3_Node000003_Node000004" class="edge">
<title>Node3&#45;&gt;Node4</title>
<g id="a_edge3_Node000003_Node000004"><a xlink:title=" ">
<path fill="none" stroke="#63b8ff" d="M730.22,-20.5C739.12,-20.5 748.05,-20.5 756.77,-20.5"/>
<polygon fill="#63b8ff" stroke="#63b8ff" points="730.21,-17 720.21,-20.5 730.21,-24 730.21,-17"/>
</a>
</g>
</g>
</g>
</svg>
