<?xml version="1.0" encoding="UTF-8" standalone="no"?>
<!DOCTYPE svg PUBLIC "-//W3C//DTD SVG 1.1//EN"
 "http://www.w3.org/Graphics/SVG/1.1/DTD/svg11.dtd">
<!-- Generated by graphviz version 2.43.0 (0)
 -->
<!-- Title: Graphical Class Hierarchy Pages: 1 -->
<svg width="253pt" height="113pt"
 viewBox="0.00 0.00 253.00 112.50" xmlns="http://www.w3.org/2000/svg" xmlns:xlink="http://www.w3.org/1999/xlink">
<g id="graph0" class="graph" transform="scale(1 1) rotate(0) translate(4 108.5)">
<title>Graphical Class Hierarchy</title>
<!-- Node0 -->
<g id="Node000000" class="node">
<title>Node0</title>
<g id="a_Node000000"><a xlink:title=" ">
<polygon fill="#e0e0e0" stroke="#999999" points="72,-56 0,-56 0,-37 72,-37 72,-56"/>
<text text-anchor="middle" x="36" y="-44" font-family="Helvetica,sans-Serif" font-size="10.00">std::variant</text>
</a>
</g>
</g>
<!-- Node1 -->
<g id="Node000001" class="node">
<title>Node1</title>
<g id="a_Node000001"><a xlink:href="structpsr_1_1LatticeDomain.html" target="_top" xlink:title=" ">
<polygon fill="white" stroke="#666666" points="231,-104.5 122,-104.5 122,-74.5 231,-74.5 231,-104.5"/>
<text text-anchor="start" x="130" y="-92.5" font-family="Helvetica,sans-Serif" font-size="10.00">psr::LatticeDomain</text>
<text text-anchor="middle" x="176.5" y="-81.5" font-family="Helvetica,sans-Serif" font-size="10.00">&lt; int64_t &gt;</text>
</a>
</g>
</g>
<!-- Node0&#45;&gt;Node1 -->
<g id="edge361_Node000000_Node000001" class="edge">
<title>Node0&#45;&gt;Node1</title>
<g id="a_edge361_Node000000_Node000001"><a xlink:title=" ">
<path fill="none" stroke="#63b8ff" d="M77.57,-59.09C93.1,-63.92 110.98,-69.47 127.17,-74.49"/>
<polygon fill="#63b8ff" stroke="#63b8ff" points="78.33,-55.67 67.74,-56.04 76.25,-62.35 78.33,-55.67"/>
</a>
</g>
</g>
<!-- Node2 -->
<g id="Node000002" class="node">
<title>Node2</title>
<g id="a_Node000002"><a xlink:href="structpsr_1_1LatticeDomain.html" target="_top" xlink:title="A easy shorthand to construct a complete lattice of L.">
<polygon fill="white" stroke="#666666" points="245,-56 108,-56 108,-37 245,-37 245,-56"/>
<text text-anchor="middle" x="176.5" y="-44" font-family="Helvetica,sans-Serif" font-size="10.00">psr::LatticeDomain&lt; L &gt;</text>
</a>
</g>
</g>
<!-- Node0&#45;&gt;Node2 -->
<g id="edge362_Node000000_Node000002" class="edge">
<title>Node0&#45;&gt;Node2</title>
<g id="a_edge362_Node000000_Node000002"><a xlink:title=" ">
<path fill="none" stroke="#63b8ff" d="M82.37,-46.5C90.56,-46.5 99.25,-46.5 107.92,-46.5"/>
<polygon fill="#63b8ff" stroke="#63b8ff" points="82.31,-43 72.31,-46.5 82.31,-50 82.31,-43"/>
</a>
</g>
</g>
<!-- Node3 -->
<g id="Node000003" class="node">
<title>Node3</title>
<g id="a_Node000003"><a xlink:href="structpsr_1_1pag_1_1Edge.html" target="_top" xlink:title="Tagged union of all PAG edge kinds, see above.">
<polygon fill="white" stroke="#666666" points="219.5,-19 133.5,-19 133.5,0 219.5,0 219.5,-19"/>
<text text-anchor="middle" x="176.5" y="-7" font-family="Helvetica,sans-Serif" font-size="10.00">psr::pag::Edge</text>
</a>
</g>
</g>
<!-- Node0&#45;&gt;Node3 -->
<g id="edge363_Node000000_Node000003" class="edge">
<title>Node0&#45;&gt;Node3</title>
<g id="a_edge363_Node000000_Node000003"><a xlink:title=" ">
<path fill="none" stroke="#63b8ff" d="M82.09,-34.45C100.8,-29.46 122.19,-23.74 139.78,-19.04"/>
<polygon fill="#63b8ff" stroke="#63b8ff" points="81.07,-31.11 72.31,-37.07 82.87,-37.87 81.07,-31.11"/>
</a>
</g>
</g>
</g>
</svg>
