<?xml version="1.0" encoding="UTF-8" standalone="no"?>
<!DOCTYPE svg PUBLIC "-//W3C//DTD SVG 1.1//EN"
 "http://www.w3.org/Graphics/SVG/1.1/DTD/svg11.dtd">
<!-- Generated by graphviz version 2.43.0 (0)
 -->
<!-- Title: Graphical Class Hierarchy Pages: 1 -->
<svg width="771pt" height="470pt"
 viewBox="0.00 0.00 771.00 470.00" xmlns="http://www.w3.org/2000/svg" xmlns:xlink="http://www.w3.org/1999/xlink">
<g id="graph0" class="graph" transform="scale(1 1) rotate(0) translate(4 466)">
<title>Graphical Class Hierarchy</title>
<!-- Node0 -->
<g id="Node000000" class="node">
<title>Node0</title>
<g id="a_Node000000"><a xlink:href="classpsr_1_1IDESolverAPIMixin.html" target="_top" xlink:title=" ">
<polygon fill="white" stroke="#666666" points="204.5,-273.5 76.5,-273.5 76.5,-243.5 204.5,-243.5 204.5,-273.5"/>
<text text-anchor="start" x="84.5" y="-261.5" font-family="Helvetica,sans-Serif" font-size="10.00">psr::IDESolverAPIMixin</text>
<text text-anchor="middle" x="140.5" y="-250.5" font-family="Helvetica,sans-Serif" font-size="10.00">&lt; Derived &gt;</text>
</a>
</g>
</g>
<!-- Node1 -->
<g id="Node000001" class="node">
<title>Node1</title>
<g id="a_Node000001"><a xlink:href="classpsr_1_1IDESolver.html" target="_top" xlink:title=" ">
<polygon fill="white" stroke="#666666" points="553,-354.5 317,-354.5 317,-302.5 553,-302.5 553,-354.5"/>
<text text-anchor="start" x="325" y="-342.5" font-family="Helvetica,sans-Serif" font-size="10.00">psr::IDESolver&lt; WithBinary</text>
<text text-anchor="start" x="325" y="-331.5" font-family="Helvetica,sans-Serif" font-size="10.00">ValueDomain&lt; AnalysisDomainTy</text>
<text text-anchor="start" x="325" y="-320.5" font-family="Helvetica,sans-Serif" font-size="10.00"> &gt;, std::set&lt; typename AnalysisDomain</text>
<text text-anchor="middle" x="435" y="-309.5" font-family="Helvetica,sans-Serif" font-size="10.00">Ty::d_t &gt;, typename AnalysisDomainTy::i_t &gt;</text>
</a>
</g>
</g>
<!-- Node0&#45;&gt;Node1 -->
<g id="edge295_Node000000_Node000001" class="edge">
<title>Node0&#45;&gt;Node1</title>
<g id="a_edge295_Node000000_Node000001"><a xlink:title=" ">
<path fill="none" stroke="#63b8ff" d="M213.98,-275.84C247.55,-283.88 288.15,-293.6 325.29,-302.48"/>
<polygon fill="#63b8ff" stroke="#63b8ff" points="214.79,-272.44 204.25,-273.52 213.16,-279.25 214.79,-272.44"/>
</a>
</g>
</g>
<!-- Node3 -->
<g id="Node000003" class="node">
<title>Node3</title>
<g id="a_Node000003"><a xlink:href="classpsr_1_1IDESolver.html" target="_top" xlink:title=" ">
<polygon fill="white" stroke="#666666" points="530.5,-284.5 339.5,-284.5 339.5,-232.5 530.5,-232.5 530.5,-284.5"/>
<text text-anchor="start" x="347.5" y="-272.5" font-family="Helvetica,sans-Serif" font-size="10.00">psr::IDESolver&lt; Analysis</text>
<text text-anchor="start" x="347.5" y="-261.5" font-family="Helvetica,sans-Serif" font-size="10.00">DomainTy, std::set&lt; typename</text>
<text text-anchor="start" x="347.5" y="-250.5" font-family="Helvetica,sans-Serif" font-size="10.00"> AnalysisDomainTy::d_t &gt;,</text>
<text text-anchor="middle" x="435" y="-239.5" font-family="Helvetica,sans-Serif" font-size="10.00"> typename AnalysisDomainTy::i_t &gt;</text>
</a>
</g>
</g>
<!-- Node0&#45;&gt;Node3 -->
<g id="edge296_Node000000_Node000003" class="edge">
<title>Node0&#45;&gt;Node3</title>
<g id="a_edge296_Node000000_Node000003"><a xlink:title=" ">
<path fill="none" stroke="#63b8ff" d="M214.99,-258.5C252.67,-258.5 298.99,-258.5 339.31,-258.5"/>
<polygon fill="#63b8ff" stroke="#63b8ff" points="214.61,-255 204.61,-258.5 214.61,-262 214.61,-255"/>
</a>
</g>
</g>
<!-- Node4 -->
<g id="Node000004" class="node">
<title>Node4</title>
<g id="a_Node000004"><a xlink:href="classpsr_1_1IDESolver.html" target="_top" xlink:title=" ">
<polygon fill="white" stroke="#666666" points="539.5,-214 330.5,-214 330.5,-173 539.5,-173 539.5,-214"/>
<text text-anchor="start" x="338.5" y="-202" font-family="Helvetica,sans-Serif" font-size="10.00">psr::IDESolver&lt; psr</text>
<text text-anchor="start" x="338.5" y="-191" font-family="Helvetica,sans-Serif" font-size="10.00">::IDETypeStateAnalysisDomain</text>
<text text-anchor="middle" x="435" y="-180" font-family="Helvetica,sans-Serif" font-size="10.00">&lt; psr::OpenSSLEVPKDFDescription &gt; &gt;</text>
</a>
</g>
</g>
<!-- Node0&#45;&gt;Node4 -->
<g id="edge297_Node000000_Node000004" class="edge">
<title>Node0&#45;&gt;Node4</title>
<g id="a_edge297_Node000000_Node000004"><a xlink:title=" ">
<path fill="none" stroke="#63b8ff" d="M214.68,-242.24C253.12,-233.7 300.62,-223.14 341.57,-214.04"/>
<polygon fill="#63b8ff" stroke="#63b8ff" points="213.61,-238.89 204.61,-244.48 215.13,-245.72 213.61,-238.89"/>
</a>
</g>
</g>
<!-- Node5 -->
<g id="Node000005" class="node">
<title>Node5</title>
<g id="a_Node000005"><a xlink:href="classpsr_1_1IDESolver.html" target="_top" xlink:title=" ">
<polygon fill="white" stroke="#666666" points="513,-462 357,-462 357,-421 513,-421 513,-462"/>
<text text-anchor="start" x="365" y="-450" font-family="Helvetica,sans-Serif" font-size="10.00">psr::IDESolver&lt; psr</text>
<text text-anchor="start" x="365" y="-439" font-family="Helvetica,sans-Serif" font-size="10.00">::IDESecureHeapPropagation</text>
<text text-anchor="middle" x="435" y="-428" font-family="Helvetica,sans-Serif" font-size="10.00">AnalysisDomain &gt;</text>
</a>
</g>
</g>
<!-- Node0&#45;&gt;Node5 -->
<g id="edge298_Node000000_Node000005" class="edge">
<title>Node0&#45;&gt;Node5</title>
<g id="a_edge298_Node000000_Node000005"><a xlink:title=" ">
<path fill="none" stroke="#63b8ff" d="M214.37,-272.65C238.17,-280.4 263.06,-292.3 281,-310.5 314.45,-344.44 281.8,-379.38 317,-411.5 328.15,-421.68 342.29,-428.5 356.84,-433.06"/>
<polygon fill="#63b8ff" stroke="#63b8ff" points="215.2,-269.25 204.62,-269.68 213.16,-275.94 215.2,-269.25"/>
</a>
</g>
</g>
<!-- Node9 -->
<g id="Node000009" class="node">
<title>Node9</title>
<g id="a_Node000009"><a xlink:href="classpsr_1_1IterativeIDESolver.html" target="_top" xlink:title=" ">
<polygon fill="white" stroke="#666666" points="540.5,-96 329.5,-96 329.5,-33 540.5,-33 540.5,-96"/>
<text text-anchor="start" x="337.5" y="-84" font-family="Helvetica,sans-Serif" font-size="10.00">psr::IterativeIDESolver</text>
<text text-anchor="start" x="337.5" y="-73" font-family="Helvetica,sans-Serif" font-size="10.00">&lt; ProblemTy, PathAwareIDESolver</text>
<text text-anchor="start" x="337.5" y="-62" font-family="Helvetica,sans-Serif" font-size="10.00">Config&lt; DefaultIDESolverConfig</text>
<text text-anchor="start" x="337.5" y="-51" font-family="Helvetica,sans-Serif" font-size="10.00">&lt; ProblemTy &gt; &gt;, typename ProblemTy</text>
<text text-anchor="middle" x="435" y="-40" font-family="Helvetica,sans-Serif" font-size="10.00">::ProblemAnalysisDomain::i_t &gt;</text>
</a>
</g>
</g>
<!-- Node0&#45;&gt;Node9 -->
<g id="edge299_Node000000_Node000009" class="edge">
<title>Node0&#45;&gt;Node9</title>
<g id="a_edge299_Node000000_Node000009"><a xlink:title=" ">
<path fill="none" stroke="#63b8ff" d="M214.3,-242C238.09,-233.55 263,-220.99 281,-202.5 313.08,-169.56 284.19,-137.72 317,-105.5 320.76,-101.81 324.88,-98.44 329.24,-95.38"/>
<polygon fill="#63b8ff" stroke="#63b8ff" points="212.92,-238.77 204.55,-245.26 215.14,-245.41 212.92,-238.77"/>
</a>
</g>
</g>
<!-- Node6 -->
<g id="Node000006" class="node">
<title>Node6</title>
<g id="a_Node000006"><a xlink:href="classpsr_1_1IDESolver.html" target="_top" xlink:title=" ">
<polygon fill="white" stroke="#666666" points="520,-402.5 350,-402.5 350,-372.5 520,-372.5 520,-402.5"/>
<text text-anchor="start" x="358" y="-390.5" font-family="Helvetica,sans-Serif" font-size="10.00">psr::IDESolver&lt; Analysis</text>
<text text-anchor="middle" x="435" y="-379.5" font-family="Helvetica,sans-Serif" font-size="10.00">DomainTy, Container, ICFGTy &gt;</text>
</a>
</g>
</g>
<!-- Node0&#45;&gt;Node6 -->
<g id="edge300_Node000000_Node000006" class="edge">
<title>Node0&#45;&gt;Node6</title>
<g id="a_edge300_Node000000_Node000006"><a xlink:title=" ">
<path fill="none" stroke="#63b8ff" d="M214.44,-276.25C237.3,-284.18 261.61,-295.28 281,-310.5 303.4,-328.08 293.31,-347.7 317,-363.5 326.92,-370.12 338.28,-374.97 349.95,-378.52"/>
<polygon fill="#63b8ff" stroke="#63b8ff" points="215.34,-272.86 204.74,-273.04 213.14,-279.51 215.34,-272.86"/>
</a>
</g>
</g>
<!-- Node11 -->
<g id="Node000011" class="node">
<title>Node11</title>
<g id="a_Node000011"><a xlink:href="classpsr_1_1IterativeIDESolver.html" target="_top" xlink:title=" ">
<polygon fill="white" stroke="#666666" points="522,-155 348,-155 348,-114 522,-114 522,-155"/>
<text text-anchor="start" x="356" y="-143" font-family="Helvetica,sans-Serif" font-size="10.00">psr::IterativeIDESolver</text>
<text text-anchor="start" x="356" y="-132" font-family="Helvetica,sans-Serif" font-size="10.00">&lt; ProblemTy, StaticSolverConfig</text>
<text text-anchor="middle" x="435" y="-121" font-family="Helvetica,sans-Serif" font-size="10.00">Ty, ICFGTy &gt;</text>
</a>
</g>
</g>
<!-- Node0&#45;&gt;Node11 -->
<g id="edge303_Node000000_Node000011" class="edge">
<title>Node0&#45;&gt;Node11</title>
<g id="a_edge303_Node000000_Node000011"><a xlink:title=" ">
<path fill="none" stroke="#63b8ff" d="M203.35,-240.15C228.66,-231.03 257.46,-218.5 281,-202.5 300.24,-189.42 296.95,-176.3 317,-164.5 326.49,-158.92 337.01,-154.36 347.73,-150.65"/>
<polygon fill="#63b8ff" stroke="#63b8ff" points="202.12,-236.87 193.84,-243.47 204.43,-243.48 202.12,-236.87"/>
</a>
</g>
</g>
<!-- Node7 -->
<g id="Node000007" class="node">
<title>Node7</title>
<g id="a_Node000007"><a xlink:href="classpsr_1_1IFDSSolver.html" target="_top" xlink:title="Solves the given IFDSTabulationProblem as described in the 1995 paper by Reps, Horwitz and Sagiv....">
<polygon fill="white" stroke="#666666" points="761,-375.5 591,-375.5 591,-345.5 761,-345.5 761,-375.5"/>
<text text-anchor="start" x="599" y="-363.5" font-family="Helvetica,sans-Serif" font-size="10.00">psr::IFDSSolver&lt; Analysis</text>
<text text-anchor="middle" x="676" y="-352.5" font-family="Helvetica,sans-Serif" font-size="10.00">DomainTy, Container, ICFGTy &gt;</text>
</a>
</g>
</g>
<!-- Node6&#45;&gt;Node7 -->
<g id="edge301_Node000006_Node000007" class="edge">
<title>Node6&#45;&gt;Node7</title>
<g id="a_edge301_Node000006_Node000007"><a xlink:title=" ">
<path fill="none" stroke="#63b8ff" d="M530.28,-376.85C550.22,-374.6 571.15,-372.23 590.69,-370.02"/>
<polygon fill="#63b8ff" stroke="#63b8ff" points="529.81,-373.38 520.26,-377.98 530.59,-380.34 529.81,-373.38"/>
</a>
</g>
</g>
<!-- Node8 -->
<g id="Node000008" class="node">
<title>Node8</title>
<g id="a_Node000008"><a xlink:href="classpsr_1_1PathAwareIDESolver.html" target="_top" xlink:title=" ">
<polygon fill="white" stroke="#666666" points="763,-435 589,-435 589,-394 763,-394 763,-435"/>
<text text-anchor="start" x="597" y="-423" font-family="Helvetica,sans-Serif" font-size="10.00">psr::PathAwareIDESolver</text>
<text text-anchor="start" x="597" y="-412" font-family="Helvetica,sans-Serif" font-size="10.00">&lt; AnalysisDomainTy, Container,</text>
<text text-anchor="middle" x="676" y="-401" font-family="Helvetica,sans-Serif" font-size="10.00"> ICFGTy &gt;</text>
</a>
</g>
</g>
<!-- Node6&#45;&gt;Node8 -->
<g id="edge302_Node000006_Node000008" class="edge">
<title>Node6&#45;&gt;Node8</title>
<g id="a_edge302_Node000006_Node000008"><a xlink:title=" ">
<path fill="none" stroke="#63b8ff" d="M530.24,-398.15C549.51,-400.32 569.7,-402.6 588.67,-404.75"/>
<polygon fill="#63b8ff" stroke="#63b8ff" points="530.59,-394.66 520.26,-397.02 529.81,-401.62 530.59,-394.66"/>
</a>
</g>
</g>
<!-- Node12 -->
<g id="Node000012" class="node">
<title>Node12</title>
<g id="a_Node000012"><a xlink:href="classpsr_1_1PathAwareIterIDESolver.html" target="_top" xlink:title=" ">
<polygon fill="white" stroke="#666666" points="763,-155 589,-155 589,-114 763,-114 763,-155"/>
<text text-anchor="start" x="597" y="-143" font-family="Helvetica,sans-Serif" font-size="10.00">psr::PathAwareIterIDESolver</text>
<text text-anchor="start" x="597" y="-132" font-family="Helvetica,sans-Serif" font-size="10.00">&lt; ProblemTy, StaticSolverConfig</text>
<text text-anchor="middle" x="676" y="-121" font-family="Helvetica,sans-Serif" font-size="10.00">Ty, ICFGTy &gt;</text>
</a>
</g>
</g>
<!-- Node11&#45;&gt;Node12 -->
<g id="edge304_Node000011_Node000012" class="edge">
<title>Node11&#45;&gt;Node12</title>
<g id="a_edge304_Node000011_Node000012"><a xlink:title=" ">
<path fill="none" stroke="#63b8ff" d="M532.54,-134.5C551.17,-134.5 570.57,-134.5 588.84,-134.5"/>
<polygon fill="#63b8ff" stroke="#63b8ff" points="532.28,-131 522.28,-134.5 532.28,-138 532.28,-131"/>
</a>
</g>
</g>
<!-- Node2 -->
<g id="Node000002" class="node">
<title>Node2</title>
<g id="a_Node000002"><a xlink:title=" ">
<polygon fill="#e0e0e0" stroke="#999999" points="209.5,-338 71.5,-338 71.5,-319 209.5,-319 209.5,-338"/>
<text text-anchor="middle" x="140.5" y="-326" font-family="Helvetica,sans-Serif" font-size="10.00">psr::detail::IDESolverPerf</text>
</a>
</g>
</g>
<!-- Node2&#45;&gt;Node1 -->
<g id="edge305_Node000002_Node000001" class="edge">
<title>Node2&#45;&gt;Node1</title>
<g id="a_edge305_Node000002_Node000001"><a xlink:title=" ">
<path fill="none" stroke="#8b1a1a" d="M220.03,-328.5C249.79,-328.5 284.37,-328.5 316.93,-328.5"/>
<polygon fill="#8b1a1a" stroke="#8b1a1a" points="219.71,-325 209.71,-328.5 219.71,-332 219.71,-325"/>
</a>
</g>
</g>
<!-- Node2&#45;&gt;Node3 -->
<g id="edge306_Node000002_Node000003" class="edge">
<title>Node2&#45;&gt;Node3</title>
<g id="a_edge306_Node000002_Node000003"><a xlink:title=" ">
<path fill="none" stroke="#8b1a1a" d="M191.15,-316.62C231.68,-306.92 290.1,-292.94 339.48,-281.12"/>
<polygon fill="#8b1a1a" stroke="#8b1a1a" points="190.16,-313.26 181.25,-318.99 191.79,-320.06 190.16,-313.26"/>
</a>
</g>
</g>
<!-- Node2&#45;&gt;Node4 -->
<g id="edge307_Node000002_Node000004" class="edge">
<title>Node2&#45;&gt;Node4</title>
<g id="a_edge307_Node000002_Node000004"><a xlink:title=" ">
<path fill="none" stroke="#8b1a1a" d="M209.5,-316.31C233.91,-309.43 260.46,-298.8 281,-282.5 305.06,-263.41 292.31,-241.77 317,-223.5 321.8,-219.95 326.99,-216.81 332.41,-214.05"/>
<polygon fill="#8b1a1a" stroke="#8b1a1a" points="208.32,-313 199.55,-318.94 210.11,-319.77 208.32,-313"/>
</a>
</g>
</g>
<!-- Node2&#45;&gt;Node5 -->
<g id="edge308_Node000002_Node000005" class="edge">
<title>Node2&#45;&gt;Node5</title>
<g id="a_edge308_Node000002_Node000005"><a xlink:title=" ">
<path fill="none" stroke="#8b1a1a" d="M168.16,-343.08C201.98,-361.11 262.47,-391.82 317,-411.5 329.72,-416.09 343.46,-420.27 356.9,-423.96"/>
<polygon fill="#8b1a1a" stroke="#8b1a1a" points="169.42,-339.79 158.96,-338.14 166.11,-345.95 169.42,-339.79"/>
</a>
</g>
</g>
<!-- Node2&#45;&gt;Node6 -->
<g id="edge309_Node000002_Node000006" class="edge">
<title>Node2&#45;&gt;Node6</title>
<g id="a_edge309_Node000002_Node000006"><a xlink:title=" ">
<path fill="none" stroke="#8b1a1a" d="M198.91,-340.08C244.87,-349.35 309.67,-362.42 359.61,-372.49"/>
<polygon fill="#8b1a1a" stroke="#8b1a1a" points="199.31,-336.59 188.82,-338.04 197.93,-343.45 199.31,-336.59"/>
</a>
</g>
</g>
<!-- Node10 -->
<g id="Node000010" class="node">
<title>Node10</title>
<g id="a_Node000010"><a xlink:href="classpsr_1_1IterativeIDESolverBase.html" target="_top" xlink:title=" ">
<polygon fill="white" stroke="#666666" points="215.5,-193 65.5,-193 65.5,-152 215.5,-152 215.5,-193"/>
<text text-anchor="start" x="73.5" y="-181" font-family="Helvetica,sans-Serif" font-size="10.00">psr::IterativeIDESolverBase</text>
<text text-anchor="start" x="73.5" y="-170" font-family="Helvetica,sans-Serif" font-size="10.00">&lt; StaticSolverConfigTy,</text>
<text text-anchor="middle" x="140.5" y="-159" font-family="Helvetica,sans-Serif" font-size="10.00"> EdgeFunPtrTy &gt;</text>
</a>
</g>
</g>
<!-- Node10&#45;&gt;Node9 -->
<g id="edge310_Node000010_Node000009" class="edge">
<title>Node10&#45;&gt;Node9</title>
<g id="a_edge310_Node000010_Node000009"><a xlink:title=" ">
<path fill="none" stroke="#63b8ff" d="M225.58,-162.71C244.58,-158.28 264.11,-151.85 281,-142.5 301.07,-131.39 297.66,-117.84 317,-105.5 322.26,-102.14 327.83,-99.02 333.57,-96.12"/>
<polygon fill="#63b8ff" stroke="#63b8ff" points="224.74,-159.31 215.71,-164.85 226.22,-166.16 224.74,-159.31"/>
</a>
</g>
</g>
<!-- Node10&#45;&gt;Node11 -->
<g id="edge311_Node000010_Node000011" class="edge">
<title>Node10&#45;&gt;Node11</title>
<g id="a_edge311_Node000010_Node000011"><a xlink:title=" ">
<path fill="none" stroke="#63b8ff" d="M225.79,-161.55C264.12,-156.57 309.42,-150.68 347.96,-145.68"/>
<polygon fill="#63b8ff" stroke="#63b8ff" points="225.15,-158.1 215.69,-162.86 226.06,-165.04 225.15,-158.1"/>
</a>
</g>
</g>
<!-- Node13 -->
<g id="Node000013" class="node">
<title>Node13</title>
<g id="a_Node000013"><a xlink:title=" ">
<polygon fill="#e0e0e0" stroke="#999999" points="281,-133.5 0,-133.5 0,-59.5 281,-59.5 281,-133.5"/>
<text text-anchor="start" x="8" y="-121.5" font-family="Helvetica,sans-Serif" font-size="10.00">psr::detail::IterativeIDESolver</text>
<text text-anchor="start" x="8" y="-110.5" font-family="Helvetica,sans-Serif" font-size="10.00">Results&lt; ProblemTy::ProblemAnalysis</text>
<text text-anchor="start" x="8" y="-99.5" font-family="Helvetica,sans-Serif" font-size="10.00">Domain::n_t, ProblemTy::ProblemAnalysisDomain</text>
<text text-anchor="start" x="8" y="-88.5" font-family="Helvetica,sans-Serif" font-size="10.00">::d_t, std::conditional_t&lt; StaticSolverConfigTy</text>
<text text-anchor="start" x="8" y="-77.5" font-family="Helvetica,sans-Serif" font-size="10.00">::ComputeValues, ProblemTy::ProblemAnalysisDomain</text>
<text text-anchor="middle" x="140.5" y="-66.5" font-family="Helvetica,sans-Serif" font-size="10.00">::l_t, BinaryDomain &gt; &gt;</text>
</a>
</g>
</g>
<!-- Node13&#45;&gt;Node9 -->
<g id="edge312_Node000013_Node000009" class="edge">
<title>Node13&#45;&gt;Node9</title>
<g id="a_edge312_Node000013_Node000009"><a xlink:title=" ">
<path fill="none" stroke="#8b1a1a" d="M291.56,-80.08C304.31,-78.69 317.03,-77.3 329.32,-75.95"/>
<polygon fill="#8b1a1a" stroke="#8b1a1a" points="290.88,-76.64 281.32,-81.2 291.65,-83.59 290.88,-76.64"/>
</a>
</g>
</g>
<!-- Node13&#45;&gt;Node11 -->
<g id="edge313_Node000013_Node000011" class="edge">
<title>Node13&#45;&gt;Node11</title>
<g id="a_edge313_Node000013_Node000011"><a xlink:title=" ">
<path fill="none" stroke="#8b1a1a" d="M291.4,-115.97C310.68,-118.48 329.87,-120.97 347.63,-123.28"/>
<polygon fill="#8b1a1a" stroke="#8b1a1a" points="291.69,-112.48 281.32,-114.67 290.79,-119.42 291.69,-112.48"/>
</a>
</g>
</g>
<!-- Node14 -->
<g id="Node000014" class="node">
<title>Node14</title>
<g id="a_Node000014"><a xlink:href="structpsr_1_1SolverStatsSelector.html" target="_top" xlink:title=" ">
<polygon fill="white" stroke="#666666" points="207,-41 74,-41 74,0 207,0 207,-41"/>
<text text-anchor="start" x="82" y="-29" font-family="Helvetica,sans-Serif" font-size="10.00">psr::SolverStatsSelector</text>
<text text-anchor="start" x="82" y="-18" font-family="Helvetica,sans-Serif" font-size="10.00">&lt; StaticSolverConfigTy,</text>
<text text-anchor="middle" x="140.5" y="-7" font-family="Helvetica,sans-Serif" font-size="10.00"> typename &gt;</text>
</a>
</g>
</g>
<!-- Node14&#45;&gt;Node9 -->
<g id="edge314_Node000014_Node000009" class="edge">
<title>Node14&#45;&gt;Node9</title>
<g id="a_edge314_Node000014_Node000009"><a xlink:title=" ">
<path fill="none" stroke="#8b1a1a" d="M217.05,-31.87C251.23,-37.01 292.18,-43.17 329.25,-48.74"/>
<polygon fill="#8b1a1a" stroke="#8b1a1a" points="217.55,-28.4 207.14,-30.37 216.51,-35.32 217.55,-28.4"/>
</a>
</g>
</g>
<!-- Node14&#45;&gt;Node11 -->
<g id="edge315_Node000014_Node000011" class="edge">
<title>Node14&#45;&gt;Node11</title>
<g id="a_edge315_Node000014_Node000011"><a xlink:title=" ">
<path fill="none" stroke="#8b1a1a" d="M217.13,-25.85C239.17,-30.18 262.31,-37.67 281,-50.5 305.09,-67.03 293.17,-88.59 317,-105.5 326.3,-112.1 336.95,-117.2 347.94,-121.15"/>
<polygon fill="#8b1a1a" stroke="#8b1a1a" points="217.57,-22.38 207.11,-24.08 216.35,-29.27 217.57,-22.38"/>
</a>
</g>
</g>
</g>
</svg>
