<?xml version="1.0" encoding="UTF-8" standalone="no"?>
<!DOCTYPE svg PUBLIC "-//W3C//DTD SVG 1.1//EN"
 "http://www.w3.org/Graphics/SVG/1.1/DTD/svg11.dtd">
<!-- Generated by graphviz version 2.43.0 (0)
 -->
<!-- Title: psr::SCCHolder&lt; GraphNodeId &gt; Pages: 1 -->
<svg width="326pt" height="104pt"
 viewBox="0.00 0.00 326.00 104.00" xmlns="http://www.w3.org/2000/svg" xmlns:xlink="http://www.w3.org/1999/xlink">
<g id="graph0" class="graph" transform="scale(1 1) rotate(0) translate(4 100)">
<title>psr::SCCHolder&lt; GraphNodeId &gt;</title>
<!-- Node1 -->
<g id="Node000001" class="node">
<title>Node1</title>
<g id="a_Node000001"><a xlink:title="Holds the SCCs of a given graph. Each SCC is assigned a unique sequential id.">
<polygon fill="#999999" stroke="#666666" points="247,-96 71,-96 71,-77 247,-77 247,-96"/>
<text text-anchor="middle" x="159" y="-84" font-family="Helvetica,sans-Serif" font-size="10.00">psr::SCCHolder&lt; GraphNodeId &gt;</text>
</a>
</g>
</g>
<!-- Node2 -->
<g id="Node000002" class="node">
<title>Node2</title>
<g id="a_Node000002"><a xlink:href="structpsr_1_1SCCHolder.html" target="_top" xlink:title=" ">
<polygon fill="white" stroke="#666666" points="162,-24.5 0,-24.5 0,-5.5 162,-5.5 162,-24.5"/>
<text text-anchor="middle" x="81" y="-12.5" font-family="Helvetica,sans-Serif" font-size="10.00">psr::SCCHolder&lt; FunctionId &gt;</text>
</a>
</g>
</g>
<!-- Node1&#45;&gt;Node2 -->
<g id="edge1_Node000001_Node000002" class="edge">
<title>Node1&#45;&gt;Node2</title>
<g id="a_edge1_Node000001_Node000002"><a xlink:title=" ">
<path fill="none" stroke="orange" stroke-dasharray="5,2" d="M141.95,-70.3C126.22,-56.29 103.43,-35.99 90.64,-24.59"/>
<polygon fill="orange" stroke="orange" points="139.64,-72.94 149.44,-76.98 144.3,-67.71 139.64,-72.94"/>
</a>
</g>
<text text-anchor="middle" x="165" y="-51" font-family="Helvetica,sans-Serif" font-size="10.00" fill="grey"> &lt; FunctionId &gt;</text>
</g>
<!-- Node3 -->
<g id="Node000003" class="node">
<title>Node3</title>
<g id="a_Node000003"><a xlink:href="structpsr_1_1SCCHolder.html" target="_top" xlink:title=" ">
<polygon fill="white" stroke="#666666" points="296,-30 180,-30 180,0 296,0 296,-30"/>
<text text-anchor="start" x="188" y="-18" font-family="Helvetica,sans-Serif" font-size="10.00">psr::SCCHolder&lt; vta</text>
<text text-anchor="middle" x="238" y="-7" font-family="Helvetica,sans-Serif" font-size="10.00">::TAGNodeId &gt;</text>
</a>
</g>
</g>
<!-- Node1&#45;&gt;Node3 -->
<g id="edge2_Node000001_Node000003" class="edge">
<title>Node1&#45;&gt;Node3</title>
<g id="a_edge2_Node000001_Node000003"><a xlink:title=" ">
<path fill="none" stroke="orange" stroke-dasharray="5,2" d="M187.85,-72.27C194.52,-68.51 201.32,-64.04 207,-59 216.37,-50.7 224.53,-39.08 230.12,-30.01"/>
<polygon fill="orange" stroke="orange" points="186.17,-69.2 178.95,-76.96 189.43,-75.4 186.17,-69.2"/>
</a>
</g>
<text text-anchor="middle" x="267" y="-51" font-family="Helvetica,sans-Serif" font-size="10.00" fill="grey"> &lt; vta::TAGNodeId &gt;</text>
</g>
</g>
</svg>
