<?xml version="1.0" encoding="iso-8859-1"?>
<!-- Generator: Adobe Illustrator 19.0.0, SVG Export Plug-In . SVG Version: 6.00 Build 0)  -->
<svg xmlns="http://www.w3.org/2000/svg" xmlns:xlink="http://www.w3.org/1999/xlink" version="1.1" id="Capa_1" x="0px" y="0px" viewBox="0 0 463 463" style="enable-background:new 0 0 463 463;" xml:space="preserve" width="512px" height="512px">
<g>
	<path d="M368,247.5c0,12.958,10.542,23.5,23.5,23.5s23.5-10.542,23.5-23.5S404.458,224,391.5,224S368,234.542,368,247.5z    M391.5,239c4.687,0,8.5,3.813,8.5,8.5s-3.813,8.5-8.5,8.5s-8.5-3.813-8.5-8.5S386.813,239,391.5,239z" fill="#D80027"/>
	<path d="M327.5,224c-12.958,0-23.5,10.542-23.5,23.5s10.542,23.5,23.5,23.5s23.5-10.542,23.5-23.5S340.458,224,327.5,224z    M327.5,256c-4.687,0-8.5-3.813-8.5-8.5s3.813-8.5,8.5-8.5s8.5,3.813,8.5,8.5S332.187,256,327.5,256z" fill="#D80027"/>
	<path d="M263.5,224c-12.958,0-23.5,10.542-23.5,23.5s10.542,23.5,23.5,23.5s23.5-10.542,23.5-23.5S276.458,224,263.5,224z    M263.5,256c-4.687,0-8.5-3.813-8.5-8.5s3.813-8.5,8.5-8.5s8.5,3.813,8.5,8.5S268.187,256,263.5,256z" fill="#D80027"/>
	<path d="M95,247.5c0-12.958-10.542-23.5-23.5-23.5S48,234.542,48,247.5S58.542,271,71.5,271S95,260.458,95,247.5z M71.5,256   c-4.687,0-8.5-3.813-8.5-8.5s3.813-8.5,8.5-8.5s8.5,3.813,8.5,8.5S76.187,256,71.5,256z" fill="#D80027"/>
	<path d="M199.5,224c-12.958,0-23.5,10.542-23.5,23.5s10.542,23.5,23.5,23.5s23.5-10.542,23.5-23.5S212.458,224,199.5,224z    M199.5,256c-4.687,0-8.5-3.813-8.5-8.5s3.813-8.5,8.5-8.5s8.5,3.813,8.5,8.5S204.187,256,199.5,256z" fill="#D80027"/>
	<path d="M383,303h8.5c30.603,0,55.5-24.897,55.5-55.5S422.103,192,391.5,192H383v-24.5c0-4.142-3.358-7.5-7.5-7.5h-32   c-4.142,0-7.5,3.358-7.5,7.5V192h-17v-24.5c0-4.142-3.358-7.5-7.5-7.5h-32c-4.142,0-7.5,3.358-7.5,7.5V192h-17v-24.5   c0-4.142-3.358-7.5-7.5-7.5h-32c-4.142,0-7.5,3.358-7.5,7.5V192h-17v-24.5c0-4.142-3.358-7.5-7.5-7.5h-32   c-2.481,0-4.674,1.21-6.039,3.066l-32.289-96.866l161.885-31.132c2.832,4.985,7.432,8.835,12.943,10.697v11.469   c-9.29,3.138-16,11.93-16,22.266v40c0,4.142,3.358,7.5,7.5,7.5s7.5-3.358,7.5-7.5V103h17v16.5c0,4.142,3.358,7.5,7.5,7.5   s7.5-3.358,7.5-7.5v-40c0-10.335-6.71-19.127-16-22.266V45.766c9.29-3.138,16-11.93,16-22.266C319,10.542,308.458,0,295.5,0   c-11.886,0-21.732,8.872-23.281,20.34L107.943,51.931C103.899,44.814,96.254,40,87.5,40C74.542,40,64,50.542,64,63.5   c0,2.562,0.418,5.026,1.179,7.337C65.189,70.868,94.895,160,94.895,160H87.5c-4.142,0-7.5,3.358-7.5,7.5V192h-8.5   C40.897,192,16,216.897,16,247.5S40.897,303,71.5,303H80v120.5V448H63.5c-4.142,0-7.5,3.358-7.5,7.5s3.358,7.5,7.5,7.5h208   c4.142,0,7.5-3.358,7.5-7.5s-3.358-7.5-7.5-7.5H255v-24.5c0-4.142-3.358-7.5-7.5-7.5H223v-56.5c0-4.142-3.358-7.5-7.5-7.5H215   v-15.441c0-0.522-0.019-1.042-0.053-1.559H368v113h-8.5c-4.142,0-7.5,3.358-7.5,7.5s3.358,7.5,7.5,7.5h32   c4.142,0,7.5-3.358,7.5-7.5s-3.358-7.5-7.5-7.5H383V303z M432,247.5c0,22.332-18.168,40.5-40.5,40.5H194.906   c-2.786-4.907-6.849-8.993-11.737-11.809L160.105,207H391.5C413.832,207,432,225.168,432,247.5z M165.973,272.039   c-5.955,0.286-11.481,2.232-16.125,5.386L86.364,86.971C86.74,86.989,87.119,87,87.5,87c5.692,0,10.917-2.035,14.988-5.415   L165.973,272.039z M151,303.5c0-9.098,7.402-16.5,16.5-16.5s16.5,7.402,16.5,16.5s-7.402,16.5-16.5,16.5S151,312.598,151,303.5z    M351,175h17v17h-17V175z M287,175h17v17h-17V175z M223,175h17v17h-17V175z M159,175h17v17h-17V175z M304,88h-17v-8.5   c0-4.687,3.813-8.5,8.5-8.5s8.5,3.813,8.5,8.5V88z M295.5,15c4.687,0,8.5,3.813,8.5,8.5s-3.813,8.5-8.5,8.5s-8.5-3.813-8.5-8.5   S290.813,15,295.5,15z M87.5,55c4.687,0,8.5,3.813,8.5,8.5S92.187,72,87.5,72S79,68.187,79,63.5S82.813,55,87.5,55z M95,175h4.895   l5.667,17H95V175z M31,247.5c0-22.332,18.168-40.5,40.5-40.5h39.062l8.055,24.166c-4.2,4.339-6.617,10.167-6.617,16.334   c0,11.698,8.592,21.424,19.797,23.206L137.561,288H71.5C49.168,288,31,269.832,31,247.5z M136.013,303   c-0.003,0.167-0.013,0.333-0.013,0.5c0,3.24,0.493,6.367,1.405,9.311l-5.996,3.598c-1.682,1.009-3.207,2.224-4.562,3.592H95v-17   H136.013z M119.5,352c-4.142,0-7.5,3.358-7.5,7.5V416H95v-81h25.053c-0.035,0.517-0.053,1.037-0.053,1.559V352H119.5z M240,448H95   v-17h145V448z M127,416v-49h0.481c0.007,0,0.013,0.001,0.019,0.001s0.013-0.001,0.019-0.001h79.961   c0.007,0,0.013,0.001,0.019,0.001s0.013-0.001,0.019-0.001H208v49H127z M135,352v-15.441c0-2.968,1.581-5.761,4.127-7.289   l6.013-3.608c5.711,5.762,13.625,9.338,22.36,9.338s16.648-3.576,22.36-9.338l6.013,3.608c2.546,1.527,4.127,4.32,4.127,7.289V352   H135z M208.153,320c-1.354-1.368-2.879-2.583-4.562-3.592l-5.996-3.598c0.913-2.944,1.405-6.071,1.405-9.311   c0-0.167-0.01-0.333-0.013-0.5H368v17H208.153z" fill="#D80027"/>
</g>
<g>
</g>
<g>
</g>
<g>
</g>
<g>
</g>
<g>
</g>
<g>
</g>
<g>
</g>
<g>
</g>
<g>
</g>
<g>
</g>
<g>
</g>
<g>
</g>
<g>
</g>
<g>
</g>
<g>
</g>
</svg>
