<?xml version="1.0" encoding="iso-8859-1"?>
<!-- Generator: Adobe Illustrator 19.0.0, SVG Export Plug-In . SVG Version: 6.00 Build 0)  -->
<svg version="1.1" id="Capa_1" xmlns="http://www.w3.org/2000/svg" xmlns:xlink="http://www.w3.org/1999/xlink" x="0px" y="0px"
	 viewBox="0 0 463 463" style="enable-background:new 0 0 463 463;" xml:space="preserve">
<g>
	<path d="M443,129.234V103.5c0-4.142-3.357-7.5-7.5-7.5s-7.5,3.358-7.5,7.5v19.368l-46.844-83.279l2.271-3.634
		c0.031-0.05,0.055-0.102,0.085-0.152C385.721,32.222,387,28.008,387,23.5C387,10.542,376.458,0,363.5,0
		c-8.287,0-15.581,4.316-19.766,10.814c-0.053,0.078-0.11,0.15-0.16,0.23l-80,128c-0.031,0.05-0.055,0.102-0.085,0.152
		c-2.095,3.394-3.346,7.359-3.471,11.602l-16.611,105.204c-5.682,0.022-10.894,2.072-14.951,5.461l-17.473-110.665
		c-0.125-4.243-1.376-8.208-3.471-11.602c-0.03-0.05-0.054-0.102-0.085-0.152l-80-128c-0.05-0.08-0.108-0.152-0.16-0.23
		C123.081,4.316,115.787,0,107.5,0C94.542,0,84,10.542,84,23.5c0,4.508,1.279,8.722,3.489,12.304c0.03,0.05,0.054,0.102,0.085,0.152
		l2.271,3.634L39.88,128.416C38.46,128.147,36.997,128,35.5,128C22.542,128,12,138.542,12,151.5v6.783l-7.615,22.846
		c-0.513,1.54-0.513,3.204,0,4.743l8,24c1.31,3.93,5.554,6.053,9.487,4.744c3.93-1.31,6.053-5.557,4.743-9.487l-7.21-21.628
		l5.5-16.5h21.189l5.5,16.5l-7.21,21.628c-1.31,3.93,0.813,8.177,4.743,9.487c0.787,0.262,1.587,0.387,2.373,0.387
		c3.14,0,6.066-1.988,7.114-5.13l8-24c0.513-1.54,0.513-3.204,0-4.743L59,158.283V151.5c0-6.041-2.292-11.555-6.051-15.722
		l45.954-81.696L164,158.235V296h-48.5c-4.143,0-7.5,3.358-7.5,7.5V416H75.5C62.542,416,52,426.542,52,439.5v16
		c0,4.142,3.357,7.5,7.5,7.5h352c4.143,0,7.5-3.358,7.5-7.5v-16c0-12.958-10.542-23.5-23.5-23.5H363V303.5
		c0-4.142-3.357-7.5-7.5-7.5H331v-16.5c0-12.958-10.542-23.5-23.5-23.5H307v-97.765l65.097-104.152l45.954,81.696
		c-3.759,4.167-6.051,9.682-6.051,15.722v63c0,4.687,3.813,8.5,8.5,8.5h7.5v20.114c-4.188,2.545-7,7.138-7,12.386
		c0,7.995,6.505,14.5,14.5,14.5s14.5-6.505,14.5-14.5c0-5.248-2.813-9.84-7-12.386V223h7.5c4.687,0,8.5-3.813,8.5-8.5v-63
		C459,141.164,452.29,132.372,443,129.234z M35.5,143c4.687,0,8.5,3.813,8.5,8.5v0.5H27v-0.5C27,146.813,30.813,143,35.5,143z
		 M283.5,143c4.687,0,8.5,3.813,8.5,8.5s-3.813,8.5-8.5,8.5s-8.5-3.813-8.5-8.5S278.813,143,283.5,143z M287.903,128.42
		l56.783-90.853c3.45,4.602,8.548,7.897,14.41,9.014l-56.784,90.852C298.862,132.83,293.764,129.536,287.903,128.42z M363.5,15
		c4.687,0,8.5,3.813,8.5,8.5s-3.813,8.5-8.5,8.5s-8.5-3.813-8.5-8.5S358.813,15,363.5,15z M126.313,37.567l56.783,90.853
		c-5.861,1.116-10.959,4.41-14.409,9.012L111.903,46.58C117.765,45.464,122.863,42.169,126.313,37.567z M179,151.5
		c0-4.687,3.813-8.5,8.5-8.5s8.5,3.813,8.5,8.5s-3.813,8.5-8.5,8.5S179,156.187,179,151.5z M107.5,15c4.687,0,8.5,3.813,8.5,8.5
		s-3.813,8.5-8.5,8.5S99,28.187,99,23.5S102.813,15,107.5,15z M179,173.403c2.638,1.027,5.503,1.597,8.5,1.597
		c4.229,0,8.197-1.129,11.629-3.092L218.723,296H179V173.403z M220,311v16.5c0,12.958,10.542,23.5,23.5,23.5H268v18.234
		c-6.933,2.342-12.424,7.832-14.766,14.766H123v-73H220z M284,416h-17v-24.5c0-4.687,3.813-8.5,8.5-8.5s8.5,3.813,8.5,8.5V416z
		 M123,399h129v17H123V399z M404,439.5v8.5H67v-8.5c0-4.687,3.813-8.5,8.5-8.5h320C400.186,431,404,434.813,404,439.5z M299,416v-17
		h49v17H299z M348,311v73h-50.234c-2.342-6.933-7.833-12.424-14.766-14.766V351h24.5c12.958,0,23.5-10.542,23.5-23.5V311H348z
		 M316,279.5v23.961c0,0.013-0.002,0.026-0.002,0.039s0.002,0.026,0.002,0.039V327.5c0,4.687-3.813,8.5-8.5,8.5h-64
		c-4.687,0-8.5-3.813-8.5-8.5v-48c0-4.687,3.813-8.5,8.5-8.5h6.293c0.01,0,0.021,0.002,0.031,0.002c0.018,0,0.036-0.002,0.054-0.002
		H307.5C312.186,271,316,274.813,316,279.5z M258.593,256l13.278-84.092c3.432,1.963,7.4,3.092,11.629,3.092
		c2.997,0,5.862-0.57,8.5-1.597V256H258.593z M444,184h-17v-32.5c0-4.687,3.813-8.5,8.5-8.5s8.5,3.813,8.5,8.5V184z M427,208v-9h17
		v9H427z"/>
	<path d="M259.5,288c-4.143,0-7.5,3.358-7.5,7.5v16c0,4.142,3.357,7.5,7.5,7.5s7.5-3.358,7.5-7.5v-16
		C267,291.358,263.642,288,259.5,288z"/>
	<path d="M291.5,288c-4.143,0-7.5,3.358-7.5,7.5v16c0,4.142,3.357,7.5,7.5,7.5s7.5-3.358,7.5-7.5v-16
		C299,291.358,295.642,288,291.5,288z"/>
	<path d="M147.5,367h48c4.143,0,7.5-3.358,7.5-7.5s-3.357-7.5-7.5-7.5h-48c-4.143,0-7.5,3.358-7.5,7.5S143.357,367,147.5,367z"/>
	<path d="M147.5,343h48c4.143,0,7.5-3.358,7.5-7.5s-3.357-7.5-7.5-7.5h-48c-4.143,0-7.5,3.358-7.5,7.5S143.357,343,147.5,343z"/>
</g>
<g>
</g>
<g>
</g>
<g>
</g>
<g>
</g>
<g>
</g>
<g>
</g>
<g>
</g>
<g>
</g>
<g>
</g>
<g>
</g>
<g>
</g>
<g>
</g>
<g>
</g>
<g>
</g>
<g>
</g>
</svg>
