<?xml version="1.0" encoding="utf-8"?>
<!-- Generator: Adobe Illustrator 15.1.0, SVG Export Plug-In . SVG Version: 6.00 Build 0)  -->
<!DOCTYPE svg PUBLIC "-//W3C//DTD SVG 1.1//EN" "http://www.w3.org/Graphics/SVG/1.1/DTD/svg11.dtd">
<svg version="1.1" id="Ebene_1" xmlns="http://www.w3.org/2000/svg" xmlns:xlink="http://www.w3.org/1999/xlink" x="0px" y="0px"
	 width="322.5px" height="79.5px" viewBox="0 0 322.5 79.5" enable-background="new 0 0 322.5 79.5" xml:space="preserve">
<path fill="#6F6F6E" d="M121.704,6.16L97.355,73.052V41.743c0-6.533-1.602-11.684-4.763-15.308
	c-3.256-3.738-7.948-5.633-13.944-5.633c-3.205,0-6.366,0.67-9.398,1.993c-1.322,0.578-2.636,1.263-3.928,2.048V6.057H51.697v42.406
	l12.538-9.196c2.024-1.551,4.167-2.843,6.369-3.839c2.031-0.92,3.972-1.387,5.769-1.387c1.753,0,3.142,0.218,4.129,0.648
	c0.817,0.356,1.4,0.863,1.855,1.626c0.322,0.508,0.759,1.513,1.012,3.409c0.24,1.807,0.362,3.771,0.362,5.841v30.085h12.679h0.946
	h13.618l6.918-19.666l11.208-31.373l8.594,24.073l9.541,26.965h14.988L136.929,6.16H121.704z"/>
<path fill="#B93E3F" d="M169.634,38.743l9.938-9.691l-4.426-4.541c-0.947-0.972-1.417-2.137-1.323-3.282
	c0.102-1.252,0.846-2.447,2.096-3.366c1.324-0.974,3.062-1.511,4.894-1.511c2.261,0,4.333,0.796,5.687,2.184l9.824,10.073
	l9.94-9.689l-9.824-10.077c-3.978-4.075-9.666-6.413-15.606-6.413c-4.748,0-9.415,1.51-13.142,4.253
	c-4.53,3.335-7.266,8.096-7.702,13.407c-0.428,5.206,1.425,10.218,5.218,14.113L169.634,38.743z"/>
<path fill="#B93E3F" d="M198.676,45.972L194.81,42l-9.943,9.688l3.873,3.976c0.948,0.969,1.417,2.132,1.324,3.276
	c-0.103,1.251-0.847,2.447-2.099,3.366c-1.322,0.974-3.059,1.511-4.89,1.511c-2.264,0-4.338-0.795-5.688-2.181l-9.822-10.076
	l-9.94,9.688l9.822,10.077c3.976,4.076,9.663,6.413,15.605,6.413c4.753,0,9.422-1.511,13.145-4.253
	c4.532-3.337,7.267-8.102,7.702-13.416C204.323,54.862,202.468,49.855,198.676,45.972z"/>
<polygon fill="#6F6F6E" points="226.386,6.092 201.089,75.581 215.653,75.581 222.57,55.915 233.777,24.544 242.373,48.618
	251.915,75.581 266.9,75.581 241.608,6.092 "/>
<path fill="#6F6F6E" d="M294.067,45.812c2.949-1.643,5.404-3.764,7.311-6.32c2.674-3.58,4.031-8.033,4.031-13.234
	c0-3.893-0.786-7.205-2.336-9.841c-1.52-2.592-3.657-4.767-6.352-6.466c-2.342-1.465-4.999-2.493-7.897-3.054
	c-2.726-0.533-6.156-0.804-10.194-0.804h-20.683v44.066h21.966l21.385,25.422h18.381L294.067,45.812z M290.967,26.859
	c0,2.044-0.245,3.703-0.728,4.928c-0.461,1.167-1.188,2.219-2.151,3.119c-1.044,0.957-2.346,1.624-3.869,1.983
	c-1.779,0.419-3.935,0.632-6.406,0.632h-5.81V18.943h7.228c2.106,0,3.936,0.149,5.438,0.443c1.315,0.257,2.451,0.703,3.39,1.336
	c1.052,0.689,1.77,1.478,2.194,2.412C290.727,24.179,290.967,25.433,290.967,26.859z"/>
<path fill="#6F6F6E" d="M42.171,10.62c-2.326-1.551-5.009-2.7-7.974-3.415C31.33,6.512,27.831,6.16,23.799,6.16H3.675v12.854H23.37
	c2.481,0,4.527,0.174,6.081,0.515c1.425,0.314,2.7,0.828,3.78,1.522c1.147,0.751,1.976,1.685,2.53,2.855
	c0.592,1.252,0.893,2.79,0.893,4.569c0,1.553-0.225,2.949-0.667,4.148c-0.421,1.144-1.169,2.268-2.214,3.335
	c-1.001,1.001-2.36,1.754-4.038,2.235c-1.89,0.542-4.45,0.816-7.615,0.816L3.675,39.081v36.57H17.73V51.818h5.726
	c4.89,0,9.04-0.614,12.335-1.823c3.373-1.236,6.341-3.121,8.822-5.603c2.025-2.022,3.623-4.445,4.75-7.202
	c1.12-2.741,1.688-5.745,1.688-8.93c0-4.176-0.787-7.73-2.338-10.563C47.172,14.877,44.972,12.497,42.171,10.62z"/>
</svg>
