<?xml version="1.0" encoding="utf-8"?>
<!-- Generator: Adobe Illustrator 14.0.0, SVG Export Plug-In . SVG Version: 6.00 Build 43363)  -->
<!DOCTYPE svg PUBLIC "-//W3C//DTD SVG 1.1//EN" "http://www.w3.org/Graphics/SVG/1.1/DTD/svg11.dtd">
<svg version="1.1" id="Ebene_1" xmlns="http://www.w3.org/2000/svg" xmlns:xlink="http://www.w3.org/1999/xlink" x="0px" y="0px"
	 width="841.89px" height="595.28px" viewBox="0 0 841.89 595.28" enable-background="new 0 0 841.89 595.28" xml:space="preserve">
<g>
	<g>
		<path fill="#003A80" d="M107.252,278.761v-18.267H95.467v18.267h-8.189v-40.953h8.189v15.909h11.785v-15.909h8.367v40.953H107.252
			z"/>
		<path fill="#003A80" d="M124.461,278.761v-40.953h23.336l-1.063,6.718h-14.023v9.486h11.727v6.718h-11.609v10.96h15.498v7.071
			H124.461z"/>
		<path fill="#003A80" d="M154.221,278.761v-40.953h8.602v40.953H154.221z"/>
		<path fill="#003A80" d="M191.52,278.761l-7.012-15.676c-2.297-5.125-4.771-10.899-5.539-13.434
			c0.295,3.359,0.354,8.19,0.414,11.608l0.234,17.501h-7.953v-40.953h9.133l7.838,16.381c2.063,4.36,3.652,8.662,4.477,11.607
			c-0.295-3.181-0.59-8.426-0.648-11.254l-0.176-16.734h7.838v40.953H191.52z"/>
		<path fill="#003A80" d="M232.182,278.761h-25.574v-5.775l15.086-24.925c1.119-1.886,2.533-3.713,2.533-3.713
			s-1.709,0.295-4.184,0.295h-12.609l1.826-6.835h24.512v5.951l-15.201,25.632c-0.885,1.474-2.123,2.888-2.123,2.888
			s2.416-0.235,4.066-0.235h13.789L232.182,278.761z"/>
		<path fill="#003A80" d="M273.902,278.761l-7.012-15.676c-2.297-5.125-4.771-10.899-5.539-13.434
			c0.295,3.359,0.354,8.19,0.414,11.608L262,278.761h-7.953v-40.953h9.133l7.836,16.381c2.063,4.36,3.654,8.662,4.479,11.607
			c-0.295-3.181-0.59-8.426-0.648-11.254l-0.176-16.734h7.838v40.953H273.902z"/>
		<path fill="#003A80" d="M291.348,278.761v-40.953h8.604v40.953H291.348z"/>
		<path fill="#003A80" d="M321.342,264.324l-7.309,14.437h-10.252l11.859-21.921l-10.092-19.032h10.076l5.717,11.02V264.324z"/>
		<path fill="#003A80" d="M332.654,278.82l-7.543-14.438v-15.496l5.6-11.02h9.84l-9.678,18.503l11.74,22.451H332.654z"/>
		<path fill="#003A80" d="M372.254,272.632c-2.475,3.359-6.127,5.599-9.959,5.892c-1.531,0.12-3.475,0.237-5.891,0.237h-9.959
			v-40.953h8.25c2.357,0,5.48,0.118,7.131,0.235c3.475,0.294,6.48,1.592,8.955,4.065c3.771,3.713,5.598,8.956,5.598,16.322
			C376.379,264.029,375.023,268.92,372.254,272.632z M365.064,247.707c-1.355-2.239-3.238-3.418-6.48-3.418h-3.771v27.754h4.418
			c5.422,0,7.896-4.183,7.896-12.846C367.127,254.424,366.715,250.418,365.064,247.707z"/>
		<path fill="#003A80" d="M407.906,277.523c-2.475,1.354-4.771,1.886-8.189,1.886c-6.188,0-10.195-1.709-13.316-5.775
			c-3.123-4.007-4.715-9.191-4.715-15.203c0-8.838,3.359-15.909,9.25-19.15c2.418-1.296,5.422-2.003,8.486-2.003
			c10.902,0,17.619,7.955,17.619,20.8C417.041,267.33,413.859,274.282,407.906,277.523z M406.492,248.827
			c-0.648-2.063-2.826-5.187-7.188-5.187c-2.77,0-5.186,1.415-6.365,3.595c-1.414,2.652-2.063,6.246-2.063,11.195
			c0,7.072,1.18,11.49,3.654,13.259c1.297,0.942,2.947,1.414,4.891,1.414c5.715,0,8.131-4.36,8.131-14.79
			C407.553,254.129,407.199,251.125,406.492,248.827z"/>
		<path fill="#003A80" d="M444.088,278.761c-1.59-2.711-2.238-3.831-3.83-6.718c-4.066-7.365-5.303-9.369-6.775-10.018
			c-0.412-0.177-0.766-0.294-1.297-0.354v17.089h-8.072v-40.953h15.262c7.248,0,12.021,4.832,12.021,12.021
			c0,6.128-4.066,11.196-9.135,11.313c0.824,0.648,1.18,1.002,1.709,1.709c2.357,2.945,9.84,15.91,9.84,15.91H444.088z
			 M439.787,244.996c-0.943-0.354-2.65-0.589-4.654-0.589h-2.947v11.077h2.77c3.537,0,5.068-0.354,6.188-1.355
			c1.002-0.942,1.59-2.415,1.59-4.124C442.732,247.471,441.732,245.703,439.787,244.996z"/>
		<path fill="#003A80" d="M480.389,244.466h-13.021v9.369h10.43v6.718h-10.43v18.208h-8.25v-40.953h22.215L480.389,244.466z"/>
	</g>
</g>
<path fill="#003A80" d="M498.531,278.779V237.42h8.689v41.359H498.531z"/>
<path fill="#003A80" d="M536.199,278.779l-7.082-15.83c-2.32-5.178-4.82-11.01-5.594-13.568c0.297,3.393,0.357,8.271,0.416,11.724
	l0.238,17.675h-8.033V237.42h9.225l7.914,16.543c2.082,4.404,3.689,8.748,4.523,11.725c-0.299-3.215-0.596-8.511-0.656-11.367
	l-0.178-16.9h7.914v41.359H536.199z"/>
<path fill="#003A80" d="M564.533,279.406c-4.701,0-9.938-1.326-14.104-3.632l3.096-6.284c3.867,1.96,7.199,3.229,11.365,3.229
	c4.762,0,7.26-1.902,7.26-5.476c0-2.594-1.725-4.208-5.414-5.188l-4.584-1.211c-4.105-1.095-6.664-2.652-8.152-5.073
	c-1.131-1.787-1.725-3.863-1.725-6.11c0-7.322,6.068-12.395,14.816-12.395c5.059,0,10.178,1.499,13.807,4.036l-3.928,5.765
	c-3.748-2.191-6.545-3.056-9.641-3.056c-3.391,0-5.771,1.902-5.771,4.611c0,2.075,1.131,3.113,4.582,4.035l4.998,1.327
	c6.785,1.787,10.475,5.996,10.475,11.933C581.613,274.044,574.828,279.406,564.533,279.406z"/>
<path fill="#003A80" d="M613.434,244.322h-9.877v34.457h-8.451v-34.457h-10.117v-6.902h29.814L613.434,244.322z"/>
<path fill="#003A80" d="M618.369,278.779V237.42h8.689v41.359H618.369z"/>
<path fill="#003A80" d="M660.857,244.322h-9.879v34.457h-8.451v-34.457h-10.115v-6.902h29.814L660.857,244.322z"/>
<path fill="#003A80" d="M694.773,271.757c-1.07,3.272-5.117,7.796-14.043,7.796c-6.309,0-10.951-1.904-13.271-5.535
	c-1.369-2.143-1.785-3.809-1.785-7.795V237.42h8.51v27.195c0,2.559,0.238,4.047,0.715,4.939c0.951,1.846,2.916,2.856,5.652,2.856
	c3.631,0,5.951-1.785,6.309-4.819c0.119-0.894,0.119-1.488,0.119-3.69V237.42h8.449v27.85
	C695.428,269.197,695.369,269.971,694.773,271.757z"/>
<path fill="#003A80" d="M729.107,244.322h-9.879v34.457h-8.451v-34.457h-10.115v-6.902h29.814L729.107,244.322z"/>
<path fill="#CFD1D2" d="M111.04,334.692c-2.477,2.123-5.721,3.126-10.615,3.126c-6.251,0-9.79-1.828-11.972-5.839
	c-1.062-1.946-1.18-4.541-1.18-6.311v-29.016h4.777v27.246c0,2.006,0.177,4.601,0.708,5.839c0.767,1.77,2.949,3.951,7.903,3.951
	c3.361,0,5.897-0.885,7.136-2.535c1.356-1.829,1.533-3.598,1.533-6.311v-28.19h4.777v28.78
	C114.107,330.328,113.458,332.627,111.04,334.692z"/>
<path fill="#CFD1D2" d="M146.836,337.11l-12.975-24.77c-2.595-4.895-4.6-9.731-4.6-9.731s0.472,5.78,0.531,11.029l0.236,23.472
	h-5.013v-40.457h5.603l13.447,25.831c2.005,3.834,3.597,8.08,3.774,8.492c0-0.117-0.472-6.546-0.531-12.325l-0.177-21.998h4.777
	v40.457H146.836z"/>
<path fill="#CFD1D2" d="M163.112,337.11v-40.457h4.718v40.457H163.112z"/>
<path fill="#CFD1D2" d="M192.716,337.11h-4.777l-13.623-40.457h5.249l8.552,26.067c1.179,3.538,2.182,7.844,2.359,9.022
	c0.236-1.002,1.062-4.068,2.477-8.433l8.669-26.657h4.954L192.716,337.11z"/>
<path fill="#CFD1D2" d="M213.061,337.11v-40.457h22.116l-0.648,4.011h-16.572v13.269h13.859v4.188h-13.859v14.803h17.811v4.188
	H213.061z"/>
<path fill="#CFD1D2" d="M263.365,337.11c-1.179-2.654-4.954-8.847-10.32-15.688c-1.592-2.005-2.477-2.536-4.482-2.595v18.282h-4.836
	v-40.457h9.436c5.544,0,8.257,1.003,10.203,2.595c1.829,1.475,4.01,4.188,4.01,8.492c0,6.665-4.305,11.088-10.733,11.088h-0.59
	c1.888,1.533,3.244,3.421,4.069,4.541c1.71,2.3,9.318,13.741,9.318,13.741H263.365z M258.353,301.547
	c-1.297-0.53-2.89-0.825-5.072-0.825h-4.659v15.098h4.305c3.598,0,5.78-0.648,7.313-2.064c1.356-1.238,2.064-3.42,2.064-6.074
	C262.304,305.028,260.652,302.492,258.353,301.547z"/>
<path fill="#CFD1D2" d="M296.213,335.408c-2.654,1.703-5.367,2.467-9.082,2.467c-4.836,0-8.964-1.175-12.975-3.642l2.123-3.759
	c3.362,2.408,6.782,3.465,10.852,3.465c3.066,0,4.718-0.47,6.428-1.763c1.946-1.468,2.89-3.406,2.89-5.755
	c0-3.583-2.359-6.05-7.254-7.519l-4.069-1.233c-3.656-1.116-5.603-1.938-7.195-3.583c-1.651-1.763-2.536-3.995-2.536-6.579
	c0-6.872,5.249-11.571,13.093-11.571c4.364,0,8.375,1.292,12.208,3.877l-2.124,3.465c-3.892-2.525-6.369-3.407-9.849-3.407
	c-5.072,0-8.08,2.526-8.08,6.637c0,3.231,1.946,5.052,6.723,6.579l4.659,1.469c3.597,1.116,5.484,2.173,7.136,4.052
	s2.654,4.581,2.654,7.107C301.816,329.476,299.811,333.117,296.213,335.408z"/>
<path fill="#CFD1D2" d="M310.661,337.11v-40.457h4.718v40.457H310.661z"/>
<path fill="#CFD1D2" d="M348.934,300.722h-10.969v36.388h-4.659v-36.388h-10.851v-4.069h26.774L348.934,300.722z"/>
<path fill="#CFD1D2" d="M374.587,337.11l-3.833-12.443h-15.098l-3.892,12.443h-4.895l13.505-40.457h6.31l13.388,40.457H374.587z
	 M357.484,294.176c-1.71,0-3.066-1.416-3.066-3.126c0-1.651,1.356-3.008,3.008-3.008c1.71,0,3.066,1.356,3.066,3.008
	C360.492,292.76,359.195,294.176,357.484,294.176z M363.323,300.899l-6.37,19.815h12.562L363.323,300.899z M369.692,294.176
	c-1.71,0-3.067-1.416-3.067-3.126c0-1.651,1.356-3.008,3.008-3.008c1.71,0,3.067,1.356,3.067,3.008
	C372.7,292.76,371.403,294.176,369.692,294.176z"/>
<path fill="#CFD1D2" d="M404.782,300.722h-10.97v36.388h-4.659v-36.388h-10.851v-4.069h26.775L404.782,300.722z"/>
<path fill="#CFD1D2" d="M449.659,317.825c-2.713,2.418-5.661,3.185-9.79,3.185h-7.077v16.101h-4.718v-40.457h11.205
	c4.364,0,6.664,0.472,8.847,1.888c3.421,2.24,5.189,5.603,5.189,9.672C453.315,312.34,452.313,315.407,449.659,317.825z
	 M445.589,302.727c-1.651-1.415-3.833-2.005-7.667-2.005h-5.131v16.336h6.782c3.421,0,4.954-0.648,6.311-2.182
	c1.415-1.593,2.064-3.421,2.064-5.721C447.949,306.148,447.241,304.143,445.589,302.727z"/>
<path fill="#CFD1D2" d="M480.737,337.11l-3.833-12.443h-15.098l-3.893,12.443h-4.895l13.505-40.457h6.311l13.388,40.457H480.737z
	 M469.473,300.899l-6.369,19.815h12.562L469.473,300.899z"/>
<path fill="#CFD1D2" d="M515.708,332.038c-3.538,3.952-7.076,5.072-12.738,5.072h-10.557v-40.457h8.08
	c6.192,0,9.022,0.295,12.975,3.126c4.6,3.303,6.841,9.259,6.841,17.161C520.308,324.017,518.42,329.03,515.708,332.038z
	 M511.58,304.32c-2.654-3.126-5.249-3.716-9.495-3.716h-4.836v32.495h4.836c4.188,0,8.08-0.472,10.262-4.246
	c1.828-3.125,2.713-7.077,2.713-11.323C515.059,311.456,514.292,307.563,511.58,304.32z"/>
<path fill="#CFD1D2" d="M529.743,337.11v-40.457h22.116l-0.649,4.011h-16.571v13.269h13.858v4.188h-13.858v14.803h17.81v4.188
	H529.743z"/>
<path fill="#CFD1D2" d="M580.046,337.11c-1.18-2.654-4.954-8.847-10.32-15.688c-1.593-2.005-2.478-2.536-4.482-2.595v18.282h-4.836
	v-40.457h9.437c5.543,0,8.256,1.003,10.202,2.595c1.828,1.475,4.011,4.188,4.011,8.492c0,6.665-4.306,11.088-10.733,11.088h-0.59
	c1.887,1.533,3.243,3.421,4.069,4.541c1.71,2.3,9.317,13.741,9.317,13.741H580.046z M575.034,301.547
	c-1.298-0.53-2.89-0.825-5.072-0.825h-4.658v15.098h4.305c3.598,0,5.779-0.648,7.313-2.064c1.356-1.238,2.064-3.42,2.064-6.074
	C578.985,305.028,577.333,302.492,575.034,301.547z"/>
<path fill="#CFD1D2" d="M613.367,335.93c-2.183,0.826-3.716,1.18-9.731,1.18h-10.438v-40.457h5.839c8.021,0,9.967,0.177,12.03,0.885
	c4.129,1.415,6.9,5.131,6.9,9.259c0,4.188-2.653,7.372-7.254,8.847c2.478,0.472,3.951,1.062,5.308,2.123
	c2.654,2.005,3.656,5.308,3.656,8.257C619.676,330.446,617.318,334.397,613.367,335.93z M608,301.076
	c-1.12-0.295-2.358-0.354-4.423-0.354h-5.721v13.328h7.018c4.364,0,5.898-0.767,7.077-3.479c0.413-0.943,0.649-2.005,0.649-3.125
	C612.6,304.26,610.772,301.784,608,301.076z M609.709,318.474c-1.12-0.236-2.712-0.413-4.718-0.413h-7.136v15.098h8.61
	c5.956,0,8.139-2.713,8.139-7.549C614.605,322.071,612.6,319.063,609.709,318.474z"/>
<path fill="#CFD1D2" d="M653.94,333.984c-3.008,2.713-6.075,3.893-10.262,3.893c-4.954,0-8.788-2.005-11.501-5.131
	c-3.185-3.656-4.836-9.141-4.836-16.041c0-12.856,6.134-20.76,16.101-20.76c7.019,0,10.793,3.716,12.738,6.605
	c2.536,3.774,3.657,8.492,3.657,14.979C659.837,325.315,658.068,330.209,653.94,333.984z M652.465,305.381
	c-1.416-3.008-4.364-5.544-9.023-5.544c-3.774,0-7.136,1.828-8.669,4.718c-1.416,2.654-2.064,6.134-2.064,11.146
	c0,6.074,1.003,11.383,2.595,14.096c1.533,2.595,5.308,4.363,8.61,4.363s5.721-1.179,7.549-3.479
	c2.005-2.535,2.949-5.779,2.949-12.443C654.412,312.282,653.822,308.212,652.465,305.381z"/>
<path fill="#CFD1D2" d="M688.911,337.11c-1.18-2.654-4.954-8.847-10.32-15.688c-1.593-2.005-2.478-2.536-4.482-2.595v18.282h-4.836
	v-40.457h9.437c5.543,0,8.256,1.003,10.202,2.595c1.828,1.475,4.011,4.188,4.011,8.492c0,6.665-4.306,11.088-10.733,11.088h-0.59
	c1.887,1.533,3.243,3.421,4.069,4.541c1.71,2.3,9.317,13.741,9.317,13.741H688.911z M683.898,301.547
	c-1.298-0.53-2.89-0.825-5.072-0.825h-4.658v15.098h4.305c3.598,0,5.779-0.648,7.313-2.064c1.356-1.238,2.064-3.42,2.064-6.074
	C687.849,305.028,686.198,302.492,683.898,301.547z"/>
<path fill="#CFD1D2" d="M723.882,337.11l-12.975-24.77c-2.595-4.895-4.601-9.731-4.601-9.731s0.472,5.78,0.531,11.029l0.235,23.472
	h-5.013v-40.457h5.603l13.446,25.831c2.006,3.834,3.598,8.08,3.774,8.492c0-0.117-0.472-6.546-0.53-12.325l-0.177-21.998h4.776
	v40.457H723.882z"/>
</svg>
