<?xml version="1.0" encoding="utf-8"?>
<!-- Generator: Adobe Illustrator 15.1.0, SVG Export Plug-In . SVG Version: 6.00 Build 0)  -->
<!DOCTYPE svg PUBLIC "-//W3C//DTD SVG 1.1//EN" "http://www.w3.org/Graphics/SVG/1.1/DTD/svg11.dtd">
<svg version="1.1" id="Ebene_1" xmlns="http://www.w3.org/2000/svg" xmlns:xlink="http://www.w3.org/1999/xlink" x="0px" y="0px"
	 width="86.732px" height="86.732px" viewBox="0 0 86.732 86.732" enable-background="new 0 0 86.732 86.732" xml:space="preserve">
<g>
	<g>
		<path fill="#B93E3F" d="M10.231,62.704l5.365-5.232l-2.408-2.471c-0.404-0.414-0.605-0.904-0.566-1.379
			c0.043-0.527,0.367-1.039,0.912-1.439c0.6-0.443,1.394-0.686,2.234-0.686c1.033,0,1.977,0.359,2.588,0.986l5.079,5.207l5.366-5.23
			l-5.078-5.209c-2.027-2.077-4.924-3.267-7.945-3.267c-2.416,0-4.791,0.769-6.688,2.164c-2.316,1.707-3.715,4.143-3.938,6.859
			c-0.219,2.668,0.73,5.232,2.67,7.227L10.231,62.704z"/>
		<path fill="#B93E3F" d="M22.697,63.565l-5.366,5.23l2.135,2.189c0.404,0.414,0.605,0.902,0.566,1.377
			c-0.043,0.527-0.365,1.039-0.911,1.439c-0.601,0.441-1.394,0.686-2.233,0.686c-1.037,0-1.981-0.357-2.591-0.984l-5.078-5.209
			l-5.366,5.23l5.078,5.209c2.024,2.076,4.92,3.268,7.943,3.268c2.418,0,4.794-0.768,6.691-2.164
			c2.316-1.707,3.713-4.145,3.936-6.863c0.219-2.668-0.73-5.232-2.67-7.221L22.697,63.565z"/>
	</g>
	<g>
		<path fill="#706F70" d="M71.712,66.403c1.352-0.805,2.486-1.818,3.383-3.021c1.365-1.824,2.058-4.092,2.058-6.734
			c0-1.982-0.403-3.674-1.199-5.027c-0.778-1.326-1.869-2.438-3.246-3.305c-1.191-0.746-2.542-1.27-4.013-1.553
			c-1.368-0.27-3.085-0.404-5.104-0.404H53.044v19.027l-6.925-19.027h-8.535L24.841,81.362h7.874l8.744-24.631l8.75,24.631h8.649
			l-4.577-12.576h9.797l10.58,12.576h9.923L71.712,66.403z M69.381,56.946c0,0.957-0.117,1.762-0.337,2.322
			c-0.211,0.533-0.545,1.016-0.986,1.428c-0.477,0.436-1.073,0.74-1.775,0.906c-0.854,0.203-1.896,0.305-3.096,0.305h-2.561v-8.564
			h3.262c1.021,0,1.905,0.072,2.631,0.213c0.606,0.119,1.131,0.324,1.564,0.615c0.476,0.313,0.784,0.65,0.972,1.063
			C69.271,55.708,69.381,56.284,69.381,56.946z"/>
		<path fill="#706F70" d="M27.473,20.565c0.236-0.579,0.412-1.185,0.551-1.806v7.882l6.707-4.919c0.984-0.754,2.023-1.38,3.09-1.862
			c0.965-0.437,1.881-0.658,2.725-0.658c1.027,0,1.609,0.16,1.917,0.294c0.347,0.151,0.582,0.355,0.778,0.684
			c0.143,0.226,0.338,0.68,0.455,1.562c0.117,0.879,0.176,1.838,0.176,2.848v15.196h6.166h1.2h6.673l8.747-24.631l8.75,24.631h8.083
			L70.75,4.782h-7.971L51.237,36.49V22.699c0-3.31-0.819-5.927-2.434-7.779c-1.673-1.92-4.072-2.894-7.133-2.894
			c-1.629,0-3.234,0.34-4.773,1.011c-0.506,0.221-1.008,0.473-1.506,0.754V4.731h-7.367v8.335c-0.199-0.889-0.494-1.697-0.888-2.414
			c-0.788-1.441-1.909-2.655-3.337-3.612c-1.182-0.787-2.543-1.37-4.045-1.733c-1.445-0.348-3.201-0.525-5.219-0.525H4.266v6.985
			h10.057c1.207,0,2.197,0.083,2.941,0.247c0.672,0.148,1.268,0.388,1.767,0.71c0.524,0.343,0.888,0.751,1.14,1.282
			c0.273,0.58,0.412,1.295,0.412,2.127c0,0.731-0.105,1.386-0.311,1.945c-0.193,0.523-0.539,1.042-1.023,1.536
			c-0.457,0.458-1.084,0.803-1.863,1.027c-0.908,0.26-2.146,0.392-3.682,0.392L4.266,21.07v18.717h7.58V27.996h2.52
			c2.457,0,4.547-0.31,6.211-0.921c1.712-0.627,3.219-1.584,4.479-2.843C26.087,23.201,26.901,21.967,27.473,20.565z"/>
	</g>
</g>
</svg>
